<?xml version="1.0" encoding="utf-8"?>
<svg version="1.1" xmlns:xlink="http://www.w3.org/1999/xlink" width="25px" height="25px" xmlns="http://www.w3.org/2000/svg">
  <g transform="matrix(1 0 0 1 -1285 -18 )">
    <path d="M 1.92307692307691 19.1964285714286  L 1.92307692307691 23.2142857142857  L 6.25 23.2142857142857  L 6.25 19.1964285714286  L 1.92307692307691 19.1964285714286  Z M 7.21153846153857 19.1964285714286  L 7.21153846153857 23.2142857142857  L 12.0192307692307 23.2142857142857  L 12.0192307692307 19.1964285714286  L 7.21153846153857 19.1964285714286  Z M 1.92307692307691 13.8392857142857  L 1.92307692307691 18.3035714285714  L 6.25 18.3035714285714  L 6.25 13.8392857142857  L 1.92307692307691 13.8392857142857  Z M 7.21153846153857 13.8392857142857  L 7.21153846153857 18.3035714285714  L 12.0192307692307 18.3035714285714  L 12.0192307692307 13.8392857142857  L 7.21153846153857 13.8392857142857  Z M 1.92307692307691 8.92857142857143  L 1.92307692307691 12.9464285714286  L 6.25 12.9464285714286  L 6.25 8.92857142857143  L 1.92307692307691 8.92857142857143  Z M 12.9807692307693 19.1964285714286  L 12.9807692307693 23.2142857142857  L 17.7884615384614 23.2142857142857  L 17.7884615384614 19.1964285714286  L 12.9807692307693 19.1964285714286  Z M 7.21153846153857 8.92857142857143  L 7.21153846153857 12.9464285714286  L 12.0192307692307 12.9464285714286  L 12.0192307692307 8.92857142857143  L 7.21153846153857 8.92857142857143  Z M 18.75 19.1964285714286  L 18.75 23.2142857142857  L 23.0769230769231 23.2142857142857  L 23.0769230769231 19.1964285714286  L 18.75 19.1964285714286  Z M 12.9807692307693 13.8392857142857  L 12.9807692307693 18.3035714285714  L 17.7884615384614 18.3035714285714  L 17.7884615384614 13.8392857142857  L 12.9807692307693 13.8392857142857  Z M 7.54957932692309 6.56389508928572  C 7.64473157051293 6.47553943452381  7.69230769230762 6.37090773809523  7.69230769230762 6.25  L 7.69230769230762 2.23214285714286  C 7.69230769230762 2.11123511904762  7.64473157051293 2.00660342261905  7.54957932692309 1.91824776785714  C 7.45442708333326 1.82989211309523  7.34174679487182 1.78571428571428  7.21153846153857 1.78571428571428  L 6.25 1.78571428571428  C 6.11979166666674 1.78571428571428  6.00711137820508 1.82989211309523  5.91195913461547 1.91824776785714  C 5.81680689102564 2.00660342261905  5.76923076923072 2.11123511904762  5.76923076923072 2.23214285714286  L 5.76923076923072 6.25  C 5.76923076923072 6.37090773809523  5.81680689102564 6.47553943452381  5.91195913461547 6.56389508928572  C 6.00711137820508 6.65225074404762  6.11979166666674 6.69642857142857  6.25 6.69642857142857  L 7.21153846153857 6.69642857142857  C 7.34174679487182 6.69642857142857  7.45442708333326 6.65225074404762  7.54957932692309 6.56389508928572  Z M 18.75 13.8392857142857  L 18.75 18.3035714285714  L 23.0769230769231 18.3035714285714  L 23.0769230769231 13.8392857142857  L 18.75 13.8392857142857  Z M 12.9807692307693 8.92857142857143  L 12.0192307692307 13.8392857142857  L 17.7884615384614 12.9464285714286  L 17.7884615384614 8.92857142857143  L 12.9807692307693 8.92857142857143  Z M 18.75 8.92857142857143  L 18.75 12.9464285714286  L 23.0769230769231 12.9464285714286  L 23.0769230769231 8.92857142857143  L 18.75 8.92857142857143  Z M 19.0880408653845 6.56389508928572  C 19.1831931089744 6.47553943452381  19.2307692307693 6.37090773809523  19.2307692307693 6.25  L 19.2307692307693 2.23214285714286  C 19.2307692307693 2.11123511904762  19.1831931089744 2.00660342261905  19.0880408653845 1.91824776785714  C 18.9928886217949 1.82989211309523  18.8802083333333 1.78571428571428  18.75 1.78571428571428  L 17.7884615384614 1.78571428571428  C 17.6582532051282 1.78571428571428  17.5455729166667 1.82989211309523  17.4504206730769 1.91824776785714  C 17.3552684294873 2.00660342261905  17.3076923076924 2.11123511904762  17.3076923076924 2.23214285714286  L 17.3076923076924 6.25  C 17.3076923076924 6.37090773809523  17.3552684294873 6.47553943452381  17.4504206730769 6.56389508928572  C 17.5455729166667 6.65225074404762  17.6582532051282 6.69642857142857  17.7884615384614 6.69642857142857  L 18.75 6.69642857142857  C 18.8802083333333 6.69642857142857  18.9928886217949 6.65225074404762  19.0880408653845 6.56389508928572  Z M 24.4290865384614 4.1015625  C 24.8096955128206 4.45498511904762  25 4.87351190476191  25 5.35714285714286  L 25 23.2142857142857  C 25 23.6979166666667  24.8096955128206 24.1164434523809  24.4290865384614 24.4698660714286  C 24.0484775641025 24.8232886904762  23.5977564102564 25  23.0769230769231 25  L 1.92307692307691 25  C 1.40224358974365 25  0.951522435897459 24.8232886904762  0.570913461538566 24.4698660714286  C 0.190304487179446 24.1164434523809  0 23.6979166666667  0 23.2142857142857  L 0 5.35714285714286  C 0 4.87351190476191  0.190304487179446 4.45498511904762  0.570913461538566 4.1015625  C 0.951522435897459 3.74813988095238  1.40224358974365 3.57142857142857  1.92307692307691 3.57142857142857  L 3.84615384615381 3.57142857142857  L 3.84615384615381 2.23214285714286  C 3.84615384615381 1.61830357142857  4.08153044871801 1.09281994047619  4.55228365384619 0.655691964285715  C 5.02303685897436 0.218563988095237  5.58894230769238 0  6.25 0  L 7.21153846153857 0  C 7.87259615384619 0  8.4385016025642 0.218563988095237  8.90925480769238 0.655691964285715  C 9.38000801282055 1.09281994047619  9.61538461538453 1.61830357142857  9.61538461538453 2.23214285714286  L 9.61538461538453 3.57142857142857  L 15.3846153846155 3.57142857142857  L 15.3846153846155 2.23214285714286  C 15.3846153846155 1.61830357142857  15.6199919871794 1.09281994047619  16.0907451923076 0.655691964285715  C 16.5614983974358 0.218563988095237  17.1274038461538 0  17.7884615384614 0  L 18.75 0  C 19.4110576923076 0  19.9769631410256 0.218563988095237  20.4477163461538 0.655691964285715  C 20.918469551282 1.09281994047619  21.1538461538462 1.61830357142857  21.1538461538462 2.23214285714286  L 21.1538461538462 3.57142857142857  L 23.0769230769231 3.57142857142857  C 23.5977564102564 3.57142857142857  24.0484775641025 3.74813988095238  24.4290865384614 4.1015625  Z " fill-rule="nonzero" fill="#000000" stroke="none" transform="matrix(1 0 0 1 1285 18 )" />
  </g>
</svg>