<?xml version="1.0" encoding="utf-8"?>
<svg version="1.1" xmlns:xlink="http://www.w3.org/1999/xlink" width="60px" height="22px" xmlns="http://www.w3.org/2000/svg">
  <defs>
    <mask fill="white" id="clip314">
      <path d="M 0 17.6000000000001  L 0 4.39999999999995  C 0 1.93600000000003  2.20000000000005 0  5 0  L 22.4516129032259 0  L 42.6129032258063 0  L 55 0  C 57.8 0  60 1.93600000000003  60 4.39999999999995  L 60 17.6000000000001  C 60 20.064  57.8 22  55 22  L 5 22  C 2.20000000000005 22  0 20.064  0 17.6000000000001  Z " fill-rule="evenodd" />
    </mask>
  </defs>
  <g transform="matrix(1 0 0 1 -1204 -269 )">
    <path d="M 0 17.6000000000001  L 0 4.39999999999995  C 0 1.93600000000003  2.20000000000005 0  5 0  L 22.4516129032259 0  L 42.6129032258063 0  L 55 0  C 57.8 0  60 1.93600000000003  60 4.39999999999995  L 60 17.6000000000001  C 60 20.064  57.8 22  55 22  L 5 22  C 2.20000000000005 22  0 20.064  0 17.6000000000001  Z " fill-rule="nonzero" fill="#95f204" stroke="none" transform="matrix(1 0 0 1 1204 269 )" />
    <path d="M 0 17.6000000000001  L 0 4.39999999999995  C 0 1.93600000000003  2.20000000000005 0  5 0  L 22.4516129032259 0  L 42.6129032258063 0  L 55 0  C 57.8 0  60 1.93600000000003  60 4.39999999999995  L 60 17.6000000000001  C 60 20.064  57.8 22  55 22  L 5 22  C 2.20000000000005 22  0 20.064  0 17.6000000000001  Z " stroke-width="2" stroke="#797979" fill="none" transform="matrix(1 0 0 1 1204 269 )" mask="url(#clip314)" />
  </g>
</svg>