<?xml version="1.0" encoding="utf-8"?>
<svg version="1.1" xmlns:xlink="http://www.w3.org/1999/xlink" width="12px" height="12px" viewBox="664 850.5  12 12" xmlns="http://www.w3.org/2000/svg">
  <path d="M 670 850.5  C 673.36 850.5  676 853.14  676 856.5  C 676 859.86  673.36 862.5  670 862.5  C 666.64 862.5  664 859.86  664 856.5  C 664 853.14  666.64 850.5  670 850.5  Z " fill-rule="nonzero" fill="#ffffff" stroke="none" />
  <path d="M 670 851  C 673.08 851  675.5 853.42  675.5 856.5  C 675.5 859.58  673.08 862  670 862  C 666.92 862  664.5 859.58  664.5 856.5  C 664.5 853.42  666.92 851  670 851  Z " stroke-width="1" stroke="#797979" fill="none" />
  <path d="M 670 859.5  C 668.32 859.5  667 858.18  667 856.5  C 667 854.82  668.32 853.5  670 853.5  C 671.68 853.5  673 854.82  673 856.5  C 673 858.18  671.68 859.5  670 859.5  " fill-rule="nonzero" fill="#797979" stroke="none" />
</svg>