<?xml version="1.0" encoding="utf-8"?>
<svg version="1.1" xmlns:xlink="http://www.w3.org/1999/xlink" width="12px" height="12px" viewBox="557 850.5  12 12" xmlns="http://www.w3.org/2000/svg">
  <path d="M 563 850.5  C 566.36 850.5  569 853.14  569 856.5  C 569 859.86  566.36 862.5  563 862.5  C 559.64 862.5  557 859.86  557 856.5  C 557 853.14  559.64 850.5  563 850.5  Z " fill-rule="nonzero" fill="#ffffff" stroke="none" />
  <path d="M 563 851  C 566.08 851  568.5 853.42  568.5 856.5  C 568.5 859.58  566.08 862  563 862  C 559.92 862  557.5 859.58  557.5 856.5  C 557.5 853.42  559.92 851  563 851  Z " stroke-width="1" stroke="#797979" fill="none" />
  <path d="M 563 859.5  C 561.32 859.5  560 858.18  560 856.5  C 560 854.82  561.32 853.5  563 853.5  C 564.68 853.5  566 854.82  566 856.5  C 566 858.18  564.68 859.5  563 859.5  " fill-rule="nonzero" fill="#797979" stroke="none" />
</svg>