<?xml version="1.0" encoding="utf-8"?>
<svg version="1.1" xmlns:xlink="http://www.w3.org/1999/xlink" width="499px" height="361px" xmlns="http://www.w3.org/2000/svg">
  <defs>
    <mask fill="white" id="clip82">
      <path d="M 0 361  L 0 0  L 499 0  L 499 361  L 240.333781362007 361  L 232.881571087216 361  L 227.292413381123 361  L 0 361  Z " fill-rule="evenodd" />
    </mask>
  </defs>
  <g transform="matrix(1 0 0 1 -275 -366 )">
    <path d="M 0 361  L 0 0  L 499 0  L 499 361  L 240.333781362007 361  L 232.881571087216 361  L 227.292413381123 361  L 0 361  Z " fill-rule="nonzero" fill="#ffffff" stroke="none" transform="matrix(1 0 0 1 275 366 )" />
    <path d="M 0 361  L 0 0  L 499 0  L 499 361  L 240.333781362007 361  L 232.881571087216 361  L 227.292413381123 361  L 0 361  Z " stroke-width="2" stroke="#797979" fill="none" transform="matrix(1 0 0 1 275 366 )" mask="url(#clip82)" />
  </g>
</svg>