<?xml version="1.0" encoding="utf-8"?>
<svg version="1.1" xmlns:xlink="http://www.w3.org/1999/xlink" width="694px" height="281px" xmlns="http://www.w3.org/2000/svg">
  <defs>
    <mask fill="white" id="clip295">
      <path d="M 0 60  L 0 0  L 694 0  L 694 280.43661971831  L 193 280.43661971831  L 193 60  L 192.760563380282 60  L 0 60  Z " fill-rule="evenodd" />
    </mask>
  </defs>
  <g transform="matrix(1 0 0 1 -734 -759 )">
    <path d="M 0 60  L 0 0  L 694 0  L 694 280.43661971831  L 193 280.43661971831  L 193 60  L 192.760563380282 60  L 0 60  Z " fill-rule="nonzero" fill="#ffffff" stroke="none" transform="matrix(1 0 0 1 734 759 )" />
    <path d="M 0 60  L 0 0  L 694 0  L 694 280.43661971831  L 193 280.43661971831  L 193 60  L 192.760563380282 60  L 0 60  Z " stroke-width="2" stroke="#797979" fill="none" transform="matrix(1 0 0 1 734 759 )" mask="url(#clip295)" />
  </g>
</svg>