<?xml version="1.0" encoding="utf-8"?>
<svg version="1.1" xmlns:xlink="http://www.w3.org/1999/xlink" width="150px" height="150px" xmlns="http://www.w3.org/2000/svg">
  <g transform="matrix(1 0 0 1 -689 -1127 )">
    <path d="M 765.465298670532 1127.51437738121  C 805.998234145103 1128.30628835838  838.5 1161.39808404417  838.5 1202  C 838.5 1243.14521386239  805.145213862394 1276.5  764 1276.5  C 722.854786137606 1276.5  689.5 1243.14521386239  689.5 1202  C 689.5 1189.08922356989  692.855163048421 1176.40300467803  699.232560106601 1165.18385141201  L 763.75 1202.43301270189  A 0.5 0.5 0 0 0 764.499958021605 1202.00647893764 L 765.465298430603 1127.51437737652  Z " fill-rule="nonzero" fill="#f59a23" stroke="none" />
    <path d="M 765.465298670532 1127.51437738121  C 805.998234145103 1128.30628835838  838.5 1161.39808404417  838.5 1202  C 838.5 1243.14521386239  805.145213862394 1276.5  764 1276.5  C 722.854786137606 1276.5  689.5 1243.14521386239  689.5 1202  C 689.5 1189.08922356989  692.855163048421 1176.40300467803  699.232560106601 1165.18385141201  L 763.75 1202.43301270189  A 0.5 0.5 0 0 0 764.499958021605 1202.00647893764 L 765.465298430603 1127.51437737652  Z " stroke-width="1" stroke="#797979" fill="none" />
  </g>
</svg>