<?xml version="1.0" encoding="utf-8"?>
<svg version="1.1" xmlns:xlink="http://www.w3.org/1999/xlink" width="150px" height="150px" xmlns="http://www.w3.org/2000/svg">
  <defs>
    <mask fill="white" id="clip70">
      <path d="M 75.414364640884 0  C 116.606873606164 0  150 33.5786437626905  150 75  C 150 116.42135623731  116.606873606164 150  75.414364640884 150  C 53.0145494709446 150  32.9210173314296 140.070770912291  19.2491713978092 124.350579263318  C 18.9334587210338 123.987565826141  18.6211703994804 123.621464366246  18.3123571096922 123.252325841714  C 7.40161312456616 110.210218946055  0.828729281767956 93.3769634992151  0.828729281767956 75  C 0.828729281767956 73.172836442957  -0.0348856883470261 91.0496752554323  8.420958830868 107.607526881721  C 11.3202930034362 113.284871697525  16.8946912444483 121.685558771574  22.505249363375 127.185534591195  C 31.6173736328649 136.118061816698  41.715685544519 141.336477987421  41.715685544519 141.336477987421  L 75.414364640884 75  L 38.121546961326 10.0480947161671  C 49.4599963142672 3.4654698367973  62.3218510686567 0  75.414364640884 0  Z " fill-rule="evenodd" />
    </mask>
  </defs>
  <g transform="matrix(1 0 0 1 -688 -1127 )">
    <path d="M 75.414364640884 0  C 116.606873606164 0  150 33.5786437626905  150 75  C 150 116.42135623731  116.606873606164 150  75.414364640884 150  C 53.0145494709446 150  32.9210173314296 140.070770912291  19.2491713978092 124.350579263318  C 18.9334587210338 123.987565826141  18.6211703994804 123.621464366246  18.3123571096922 123.252325841714  C 7.40161312456616 110.210218946055  0.828729281767956 93.3769634992151  0.828729281767956 75  C 0.828729281767956 73.172836442957  -0.0348856883470261 91.0496752554323  8.420958830868 107.607526881721  C 11.3202930034362 113.284871697525  16.8946912444483 121.685558771574  22.505249363375 127.185534591195  C 31.6173736328649 136.118061816698  41.715685544519 141.336477987421  41.715685544519 141.336477987421  L 75.414364640884 75  L 38.121546961326 10.0480947161671  C 49.4599963142672 3.4654698367973  62.3218510686567 0  75.414364640884 0  Z " fill-rule="nonzero" fill="#d9001b" stroke="none" transform="matrix(1 0 0 1 688 1127 )" />
    <path d="M 75.414364640884 0  C 116.606873606164 0  150 33.5786437626905  150 75  C 150 116.42135623731  116.606873606164 150  75.414364640884 150  C 53.0145494709446 150  32.9210173314296 140.070770912291  19.2491713978092 124.350579263318  C 18.9334587210338 123.987565826141  18.6211703994804 123.621464366246  18.3123571096922 123.252325841714  C 7.40161312456616 110.210218946055  0.828729281767956 93.3769634992151  0.828729281767956 75  C 0.828729281767956 73.172836442957  -0.0348856883470261 91.0496752554323  8.420958830868 107.607526881721  C 11.3202930034362 113.284871697525  16.8946912444483 121.685558771574  22.505249363375 127.185534591195  C 31.6173736328649 136.118061816698  41.715685544519 141.336477987421  41.715685544519 141.336477987421  L 75.414364640884 75  L 38.121546961326 10.0480947161671  C 49.4599963142672 3.4654698367973  62.3218510686567 0  75.414364640884 0  Z " stroke-width="2" stroke="#797979" fill="none" transform="matrix(1 0 0 1 688 1127 )" mask="url(#clip70)" />
  </g>
</svg>