<?xml version="1.0" encoding="utf-8"?>
<svg version="1.1" xmlns:xlink="http://www.w3.org/1999/xlink" width="150px" height="150px" xmlns="http://www.w3.org/2000/svg">
  <defs>
    <mask fill="white" id="clip71">
      <path d="M 75.414364640884 150  C 116.606873606164 150  150 116.42135623731  150 75  C 150 33.5786437626905  116.606873606164 0  75.414364640884 0  C 34.2218556756038 0  0.828729281767956 33.5786437626905  0.828729281767956 75  C 0.828729281767956 78.8578039971849  1.1246519033549 82.6956921720048  1.70778151181921 86.4809566262836  C 2.96520089773775 94.6432327936238  5.55806255023484 102.560821527002  9.39897999959796 109.905780244086  C 9.56517036645534 110.223584883169  2.90048166731307 98.6819251942867  0.828729281767956 84.551282051282  C -0.115793564154183 78.1090472701069  1.01090406043312 70.1897451203467  1.70778151181921 63.4508547008547  C 2.58132137832175 55.0036170614258  6.10838690509138 45.6216307673597  9.39897999959796 39.4123931623932  C 11.1704557440266 36.0696784928233  15.5026447465726 28.3219235371317  20.951976200595 22.8525641025641  C 28.2490822152331 15.5286389636846  36.8153451946103 10.7049152692261  36.8890777730556 10.8333333333333  C 37.3807216490424 11.6896163511749  75.414364640884 75  75.414364640884 75  L 106.605563100422 136.868593442096  L 107.574407414008 138.790322580645  C 113.539118612103 142.253182016592  100.705050782585 145.174856891984  89.1061569083905 147.166428145974  C 78.656460938921 148.960678040098  69.2093063003735 150  75.414364640884 150  Z " fill-rule="evenodd" />
    </mask>
  </defs>
  <g transform="matrix(1 0 0 1 -689 -1127 )">
    <path d="M 75.414364640884 150  C 116.606873606164 150  150 116.42135623731  150 75  C 150 33.5786437626905  116.606873606164 0  75.414364640884 0  C 34.2218556756038 0  0.828729281767956 33.5786437626905  0.828729281767956 75  C 0.828729281767956 78.8578039971849  1.1246519033549 82.6956921720048  1.70778151181921 86.4809566262836  C 2.96520089773775 94.6432327936238  5.55806255023484 102.560821527002  9.39897999959796 109.905780244086  C 9.56517036645534 110.223584883169  2.90048166731307 98.6819251942867  0.828729281767956 84.551282051282  C -0.115793564154183 78.1090472701069  1.01090406043312 70.1897451203467  1.70778151181921 63.4508547008547  C 2.58132137832175 55.0036170614258  6.10838690509138 45.6216307673597  9.39897999959796 39.4123931623932  C 11.1704557440266 36.0696784928233  15.5026447465726 28.3219235371317  20.951976200595 22.8525641025641  C 28.2490822152331 15.5286389636846  36.8153451946103 10.7049152692261  36.8890777730556 10.8333333333333  C 37.3807216490424 11.6896163511749  75.414364640884 75  75.414364640884 75  L 106.605563100422 136.868593442096  L 107.574407414008 138.790322580645  C 113.539118612103 142.253182016592  100.705050782585 145.174856891984  89.1061569083905 147.166428145974  C 78.656460938921 148.960678040098  69.2093063003735 150  75.414364640884 150  Z " fill-rule="nonzero" fill="#0000bf" stroke="none" transform="matrix(1 0 0 1 689 1127 )" />
    <path d="M 75.414364640884 150  C 116.606873606164 150  150 116.42135623731  150 75  C 150 33.5786437626905  116.606873606164 0  75.414364640884 0  C 34.2218556756038 0  0.828729281767956 33.5786437626905  0.828729281767956 75  C 0.828729281767956 78.8578039971849  1.1246519033549 82.6956921720048  1.70778151181921 86.4809566262836  C 2.96520089773775 94.6432327936238  5.55806255023484 102.560821527002  9.39897999959796 109.905780244086  C 9.56517036645534 110.223584883169  2.90048166731307 98.6819251942867  0.828729281767956 84.551282051282  C -0.115793564154183 78.1090472701069  1.01090406043312 70.1897451203467  1.70778151181921 63.4508547008547  C 2.58132137832175 55.0036170614258  6.10838690509138 45.6216307673597  9.39897999959796 39.4123931623932  C 11.1704557440266 36.0696784928233  15.5026447465726 28.3219235371317  20.951976200595 22.8525641025641  C 28.2490822152331 15.5286389636846  36.8153451946103 10.7049152692261  36.8890777730556 10.8333333333333  C 37.3807216490424 11.6896163511749  75.414364640884 75  75.414364640884 75  L 106.605563100422 136.868593442096  L 107.574407414008 138.790322580645  C 113.539118612103 142.253182016592  100.705050782585 145.174856891984  89.1061569083905 147.166428145974  C 78.656460938921 148.960678040098  69.2093063003735 150  75.414364640884 150  Z " stroke-width="2" stroke="#797979" fill="none" transform="matrix(1 0 0 1 689 1127 )" mask="url(#clip71)" />
  </g>
</svg>