<?xml version="1.0" encoding="utf-8"?>
<svg version="1.1" xmlns:xlink="http://www.w3.org/1999/xlink" width="150px" height="150px" xmlns="http://www.w3.org/2000/svg">
  <defs>
    <mask fill="white" id="clip31">
      <path d="M 75 0.828729281767956  C 75.3591500541919 0.828729281767956  75.7177039407154 0.831295881179332  76.075644508449 0.836411834123192  C 79.7473392869855 0.888890428069905  83.3544987305396 1.20962003100896  86.8786105780138 1.77998610415683  C 95.8098994027864 3.22548623457597  103.700591947432 6.04438488728628  111.263736263736 10.3936464088397  C 133.609630250563 23.2438754692733  149.175824175824 47.6757864904404  149.175824175824 75.414364640884  C 149.175824175824 116.606873606164  115.966176498438 150  75 150  C 34.7492500765348 150  1.95622729395063 119.306919501779  0.824175824175824 79.1091160220995  C 0.804054467250733 78.3946305300384  0.824175824175824 76.1337438488677  0.824175824175824 75.414364640884  C 0.824175824175824 74.5418352401656  0.938856669060547 81.8764328720315  2.57554945054945 89.8135359116022  C 3.46346375977147 94.1194554111633  7.2273363647022 106.480637941972  12.3626373626375 115.020718232044  C 13.6623804207476 117.182209851949  19.7766167544344 125.232575131466  25.9271978021978 130.904696132597  C 33.4173244914686 137.812158137474  41.037087912088 142.299723756906  41.037087912088 142.299723756906  C 41.037087912088 142.299723756906  50.549094024969 145.431503612094  59.581043956044 147.479281767956  C 61.5588042639517 147.927691511917  72.715142610545 149.792699048392  84.478021978022 148.515193370166  C 97.3902899035629 147.112858526941  111.385761678924 142.139775335522  123.111263736264 132.458563535912  C 133.698380069869 123.717264863024  142.35297431313 110.158285733552  146.291208791209 98.2734806629836  C 148.150810639577 92.6615737032154  151.351108417035 76.8555124083371  149.175824175824 63.225138121547  C 147.214653322012 50.9364025754622  139.938186813187 40.4350828729283  139.938186813187 40.4350828729283  L 75 75.414364640884  C 75 75.414364640884  118.303571428571 14.8825966850829  118.303571428571 14.8825966850829  C 118.303571428571 14.8825966850829  113.175724881302 11.5279640681684  108.001373626374 8.83977900552488  C 102.873738929684 6.17586418427973  97.6991758241759 4.17817679558008  97.6991758241759 4.17817679558008  C 97.6991758241759 4.17817679558008  92.1876399784447 2.5472296399094  86.8786105780138 1.77998610415683  C 80.8802343172841 0.913120418560308  75 0.894425140335567  75 0.828729281767956  C 77.0471508077559 -0.359723749873942  70.7164829304882 0.828729281767956  75 0.828729281767956  Z " fill-rule="evenodd" />
    </mask>
  </defs>
  <g transform="matrix(1 0 0 1 -688 -1126 )">
    <path d="M 75 0.828729281767956  C 75.3591500541919 0.828729281767956  75.7177039407154 0.831295881179332  76.075644508449 0.836411834123192  C 79.7473392869855 0.888890428069905  83.3544987305396 1.20962003100896  86.8786105780138 1.77998610415683  C 95.8098994027864 3.22548623457597  103.700591947432 6.04438488728628  111.263736263736 10.3936464088397  C 133.609630250563 23.2438754692733  149.175824175824 47.6757864904404  149.175824175824 75.414364640884  C 149.175824175824 116.606873606164  115.966176498438 150  75 150  C 34.7492500765348 150  1.95622729395063 119.306919501779  0.824175824175824 79.1091160220995  C 0.804054467250733 78.3946305300384  0.824175824175824 76.1337438488677  0.824175824175824 75.414364640884  C 0.824175824175824 74.5418352401656  0.938856669060547 81.8764328720315  2.57554945054945 89.8135359116022  C 3.46346375977147 94.1194554111633  7.2273363647022 106.480637941972  12.3626373626375 115.020718232044  C 13.6623804207476 117.182209851949  19.7766167544344 125.232575131466  25.9271978021978 130.904696132597  C 33.4173244914686 137.812158137474  41.037087912088 142.299723756906  41.037087912088 142.299723756906  C 41.037087912088 142.299723756906  50.549094024969 145.431503612094  59.581043956044 147.479281767956  C 61.5588042639517 147.927691511917  72.715142610545 149.792699048392  84.478021978022 148.515193370166  C 97.3902899035629 147.112858526941  111.385761678924 142.139775335522  123.111263736264 132.458563535912  C 133.698380069869 123.717264863024  142.35297431313 110.158285733552  146.291208791209 98.2734806629836  C 148.150810639577 92.6615737032154  151.351108417035 76.8555124083371  149.175824175824 63.225138121547  C 147.214653322012 50.9364025754622  139.938186813187 40.4350828729283  139.938186813187 40.4350828729283  L 75 75.414364640884  C 75 75.414364640884  118.303571428571 14.8825966850829  118.303571428571 14.8825966850829  C 118.303571428571 14.8825966850829  113.175724881302 11.5279640681684  108.001373626374 8.83977900552488  C 102.873738929684 6.17586418427973  97.6991758241759 4.17817679558008  97.6991758241759 4.17817679558008  C 97.6991758241759 4.17817679558008  92.1876399784447 2.5472296399094  86.8786105780138 1.77998610415683  C 80.8802343172841 0.913120418560308  75 0.894425140335567  75 0.828729281767956  C 77.0471508077559 -0.359723749873942  70.7164829304882 0.828729281767956  75 0.828729281767956  Z " fill-rule="nonzero" fill="#ffff00" stroke="none" transform="matrix(1 0 0 1 688 1126 )" />
    <path d="M 75 0.828729281767956  C 75.3591500541919 0.828729281767956  75.7177039407154 0.831295881179332  76.075644508449 0.836411834123192  C 79.7473392869855 0.888890428069905  83.3544987305396 1.20962003100896  86.8786105780138 1.77998610415683  C 95.8098994027864 3.22548623457597  103.700591947432 6.04438488728628  111.263736263736 10.3936464088397  C 133.609630250563 23.2438754692733  149.175824175824 47.6757864904404  149.175824175824 75.414364640884  C 149.175824175824 116.606873606164  115.966176498438 150  75 150  C 34.7492500765348 150  1.95622729395063 119.306919501779  0.824175824175824 79.1091160220995  C 0.804054467250733 78.3946305300384  0.824175824175824 76.1337438488677  0.824175824175824 75.414364640884  C 0.824175824175824 74.5418352401656  0.938856669060547 81.8764328720315  2.57554945054945 89.8135359116022  C 3.46346375977147 94.1194554111633  7.2273363647022 106.480637941972  12.3626373626375 115.020718232044  C 13.6623804207476 117.182209851949  19.7766167544344 125.232575131466  25.9271978021978 130.904696132597  C 33.4173244914686 137.812158137474  41.037087912088 142.299723756906  41.037087912088 142.299723756906  C 41.037087912088 142.299723756906  50.549094024969 145.431503612094  59.581043956044 147.479281767956  C 61.5588042639517 147.927691511917  72.715142610545 149.792699048392  84.478021978022 148.515193370166  C 97.3902899035629 147.112858526941  111.385761678924 142.139775335522  123.111263736264 132.458563535912  C 133.698380069869 123.717264863024  142.35297431313 110.158285733552  146.291208791209 98.2734806629836  C 148.150810639577 92.6615737032154  151.351108417035 76.8555124083371  149.175824175824 63.225138121547  C 147.214653322012 50.9364025754622  139.938186813187 40.4350828729283  139.938186813187 40.4350828729283  L 75 75.414364640884  C 75 75.414364640884  118.303571428571 14.8825966850829  118.303571428571 14.8825966850829  C 118.303571428571 14.8825966850829  113.175724881302 11.5279640681684  108.001373626374 8.83977900552488  C 102.873738929684 6.17586418427973  97.6991758241759 4.17817679558008  97.6991758241759 4.17817679558008  C 97.6991758241759 4.17817679558008  92.1876399784447 2.5472296399094  86.8786105780138 1.77998610415683  C 80.8802343172841 0.913120418560308  75 0.894425140335567  75 0.828729281767956  C 77.0471508077559 -0.359723749873942  70.7164829304882 0.828729281767956  75 0.828729281767956  Z " stroke-width="2" stroke="#797979" fill="none" transform="matrix(1 0 0 1 688 1126 )" mask="url(#clip31)" />
  </g>
</svg>