<?xml version="1.0" encoding="utf-8"?>
<svg version="1.1" xmlns:xlink="http://www.w3.org/1999/xlink" width="150px" height="150px" xmlns="http://www.w3.org/2000/svg">
  <defs>
    <mask fill="white" id="clip114">
      <path d="M 74.585635359116 0  C 115.778144324396 0  149.171270718232 33.5786437626905  149.171270718232 75  C 149.171270718232 101.168629746115  135.843103987217 124.207005132326  115.640396949426 137.625646254259  C 115.579994572856 137.665765522067  115.700922056544 137.58569914149  115.640396949426 137.625646254259  C 103.901585021672 145.37336726087  89.6762855173005 150  74.585635359116 150  C 54.6674867025736 150  36.1436917539303 141.598176500138  22.8777093072673 128.621794871795  C 19.3940885145823 125.214222682094  16.9222531663437 121.592232434859  14.1123034424139 117.604166666667  C 11.7691855305482 114.278659361119  7.77183040329771 106.960961729596  5.60809492974166 102.741942556138  C 4.80915680333031 101.184111058281  4.26021131436979 100.048748199862  4.1368427299706 99.6928196034279  C 1.74668963674295 92.7970297240327  0.329573047851087 85.4426813808645  0.0508729025804608 77.7960732906491  C 0.0170561139749446 76.8682527145788  0 75.9361292574711  0 75  C 0 73.9411839237567  0.0548789923152087 75.0346560814753  0.293609607863389 77.2960609954676  C 0.313167187946777 77.4813225615418  0.333958672300928 77.6744226073133  0.356054972733857 77.8748199138747  C 0.375758681646915 78.0535181628157  0.396499933628186 78.23801893249  0.418329009666369 78.427938464218  C 0.528916851286454 79.3900859714514  0.667423876543379 80.4913068995317  0.840387708730479 81.6817042644709  C 0.936947496053737 82.3462609026876  1.04424042908013 83.0385756579642  1.16340841478956 83.75  C 1.78766889613402 87.4767903754155  2.77515408317594 91.253919224533  4.1368427299706 95.7692307692308  C 7.6524563622591 107.426881626448  14.1123034424139 118.80608974359  14.1123034424139 118.80608974359  C 14.1123034424139 118.80608974359  22.6120909477263 128.822115384615  27.4596260093497 133.028846153846  C 31.6431151721207 136.501068376068  41.2053761155971 141.842948717949  41.2053761155971 141.842948717949  L 58.1385465363364 148.052884615385  L 78.2591372715681 150  L 87.4229706757329 148.052884615385  L 89.8157236168928 148.052884615385  L 89.8157236168928 147.417325291181  L 97.9813004674884 145.248397435897  L 113.918402039949 138.838141025641  L 120.691670208244 134.230769230769  L 128.261793455164 126.418269230769  C 128.261793455164 126.418269230769  135.1686060487 119.773674250556  140.413833404165 110.793269230769  C 145.138161301332 102.704701264572  148.195777980101 92.6194001833901  149.171270718232 85.5528846153846  C 150.20009316586 78.2878328233198  149.918508512546 66.4609153691817  147.386315342116 56.5064102564102  C 145.015352014155 47.1857285461856  140.413833404165 39.4791666666667  140.413833404165 39.4791666666667  L 74.585635359116 75  L 97.9813004674884 3.62179487179484  C 100.853027370335 1.95459150306173  64.8091063876839 0  74.585635359116 0  Z " fill-rule="evenodd" />
    </mask>
  </defs>
  <g transform="matrix(1 0 0 1 -689 -1127 )">
    <path d="M 74.585635359116 0  C 115.778144324396 0  149.171270718232 33.5786437626905  149.171270718232 75  C 149.171270718232 101.168629746115  135.843103987217 124.207005132326  115.640396949426 137.625646254259  C 115.579994572856 137.665765522067  115.700922056544 137.58569914149  115.640396949426 137.625646254259  C 103.901585021672 145.37336726087  89.6762855173005 150  74.585635359116 150  C 54.6674867025736 150  36.1436917539303 141.598176500138  22.8777093072673 128.621794871795  C 19.3940885145823 125.214222682094  16.9222531663437 121.592232434859  14.1123034424139 117.604166666667  C 11.7691855305482 114.278659361119  7.77183040329771 106.960961729596  5.60809492974166 102.741942556138  C 4.80915680333031 101.184111058281  4.26021131436979 100.048748199862  4.1368427299706 99.6928196034279  C 1.74668963674295 92.7970297240327  0.329573047851087 85.4426813808645  0.0508729025804608 77.7960732906491  C 0.0170561139749446 76.8682527145788  0 75.9361292574711  0 75  C 0 73.9411839237567  0.0548789923152087 75.0346560814753  0.293609607863389 77.2960609954676  C 0.313167187946777 77.4813225615418  0.333958672300928 77.6744226073133  0.356054972733857 77.8748199138747  C 0.375758681646915 78.0535181628157  0.396499933628186 78.23801893249  0.418329009666369 78.427938464218  C 0.528916851286454 79.3900859714514  0.667423876543379 80.4913068995317  0.840387708730479 81.6817042644709  C 0.936947496053737 82.3462609026876  1.04424042908013 83.0385756579642  1.16340841478956 83.75  C 1.78766889613402 87.4767903754155  2.77515408317594 91.253919224533  4.1368427299706 95.7692307692308  C 7.6524563622591 107.426881626448  14.1123034424139 118.80608974359  14.1123034424139 118.80608974359  C 14.1123034424139 118.80608974359  22.6120909477263 128.822115384615  27.4596260093497 133.028846153846  C 31.6431151721207 136.501068376068  41.2053761155971 141.842948717949  41.2053761155971 141.842948717949  L 58.1385465363364 148.052884615385  L 78.2591372715681 150  L 87.4229706757329 148.052884615385  L 89.8157236168928 148.052884615385  L 89.8157236168928 147.417325291181  L 97.9813004674884 145.248397435897  L 113.918402039949 138.838141025641  L 120.691670208244 134.230769230769  L 128.261793455164 126.418269230769  C 128.261793455164 126.418269230769  135.1686060487 119.773674250556  140.413833404165 110.793269230769  C 145.138161301332 102.704701264572  148.195777980101 92.6194001833901  149.171270718232 85.5528846153846  C 150.20009316586 78.2878328233198  149.918508512546 66.4609153691817  147.386315342116 56.5064102564102  C 145.015352014155 47.1857285461856  140.413833404165 39.4791666666667  140.413833404165 39.4791666666667  L 74.585635359116 75  L 97.9813004674884 3.62179487179484  C 100.853027370335 1.95459150306173  64.8091063876839 0  74.585635359116 0  Z " fill-rule="nonzero" fill="#6d000e" stroke="none" transform="matrix(1 0 0 1 689 1127 )" />
    <path d="M 74.585635359116 0  C 115.778144324396 0  149.171270718232 33.5786437626905  149.171270718232 75  C 149.171270718232 101.168629746115  135.843103987217 124.207005132326  115.640396949426 137.625646254259  C 115.579994572856 137.665765522067  115.700922056544 137.58569914149  115.640396949426 137.625646254259  C 103.901585021672 145.37336726087  89.6762855173005 150  74.585635359116 150  C 54.6674867025736 150  36.1436917539303 141.598176500138  22.8777093072673 128.621794871795  C 19.3940885145823 125.214222682094  16.9222531663437 121.592232434859  14.1123034424139 117.604166666667  C 11.7691855305482 114.278659361119  7.77183040329771 106.960961729596  5.60809492974166 102.741942556138  C 4.80915680333031 101.184111058281  4.26021131436979 100.048748199862  4.1368427299706 99.6928196034279  C 1.74668963674295 92.7970297240327  0.329573047851087 85.4426813808645  0.0508729025804608 77.7960732906491  C 0.0170561139749446 76.8682527145788  0 75.9361292574711  0 75  C 0 73.9411839237567  0.0548789923152087 75.0346560814753  0.293609607863389 77.2960609954676  C 0.313167187946777 77.4813225615418  0.333958672300928 77.6744226073133  0.356054972733857 77.8748199138747  C 0.375758681646915 78.0535181628157  0.396499933628186 78.23801893249  0.418329009666369 78.427938464218  C 0.528916851286454 79.3900859714514  0.667423876543379 80.4913068995317  0.840387708730479 81.6817042644709  C 0.936947496053737 82.3462609026876  1.04424042908013 83.0385756579642  1.16340841478956 83.75  C 1.78766889613402 87.4767903754155  2.77515408317594 91.253919224533  4.1368427299706 95.7692307692308  C 7.6524563622591 107.426881626448  14.1123034424139 118.80608974359  14.1123034424139 118.80608974359  C 14.1123034424139 118.80608974359  22.6120909477263 128.822115384615  27.4596260093497 133.028846153846  C 31.6431151721207 136.501068376068  41.2053761155971 141.842948717949  41.2053761155971 141.842948717949  L 58.1385465363364 148.052884615385  L 78.2591372715681 150  L 87.4229706757329 148.052884615385  L 89.8157236168928 148.052884615385  L 89.8157236168928 147.417325291181  L 97.9813004674884 145.248397435897  L 113.918402039949 138.838141025641  L 120.691670208244 134.230769230769  L 128.261793455164 126.418269230769  C 128.261793455164 126.418269230769  135.1686060487 119.773674250556  140.413833404165 110.793269230769  C 145.138161301332 102.704701264572  148.195777980101 92.6194001833901  149.171270718232 85.5528846153846  C 150.20009316586 78.2878328233198  149.918508512546 66.4609153691817  147.386315342116 56.5064102564102  C 145.015352014155 47.1857285461856  140.413833404165 39.4791666666667  140.413833404165 39.4791666666667  L 74.585635359116 75  L 97.9813004674884 3.62179487179484  C 100.853027370335 1.95459150306173  64.8091063876839 0  74.585635359116 0  Z " stroke-width="2" stroke="#797979" fill="none" transform="matrix(1 0 0 1 689 1127 )" mask="url(#clip114)" />
  </g>
</svg>