<?xml version="1.0" encoding="utf-8"?>
<svg version="1.1" xmlns:xlink="http://www.w3.org/1999/xlink" width="150px" height="150px" xmlns="http://www.w3.org/2000/svg">
  <defs>
    <mask fill="white" id="clip31">
      <path d="M 75 0  C 116.42135623731 0  150 33.5786437626905  150 75  C 150 116.42135623731  116.42135623731 150  75 150  C 33.5786437626905 150  0 116.42135623731  0 75  C 0 61.8347502412604  3.08679660823363 115.898685917299  9.66942148760343 104.497245179063  L 75 75  L 37.5 10.0480947161671  C 48.9014407382354 3.4654698367973  61.8347502412604 0  75 0  Z " fill-rule="evenodd" />
    </mask>
  </defs>
  <g transform="matrix(1 0 0 1 -689 -1127 )">
    <path d="M 75 0  C 116.42135623731 0  150 33.5786437626905  150 75  C 150 116.42135623731  116.42135623731 150  75 150  C 33.5786437626905 150  0 116.42135623731  0 75  C 0 61.8347502412604  3.08679660823363 115.898685917299  9.66942148760343 104.497245179063  L 75 75  L 37.5 10.0480947161671  C 48.9014407382354 3.4654698367973  61.8347502412604 0  75 0  Z " fill-rule="nonzero" fill="#02a7f0" stroke="none" transform="matrix(1 0 0 1 689 1127 )" />
    <path d="M 75 0  C 116.42135623731 0  150 33.5786437626905  150 75  C 150 116.42135623731  116.42135623731 150  75 150  C 33.5786437626905 150  0 116.42135623731  0 75  C 0 61.8347502412604  3.08679660823363 115.898685917299  9.66942148760343 104.497245179063  L 75 75  L 37.5 10.0480947161671  C 48.9014407382354 3.4654698367973  61.8347502412604 0  75 0  Z " stroke-width="2" stroke="#797979" fill="none" transform="matrix(1 0 0 1 689 1127 )" mask="url(#clip31)" />
  </g>
</svg>