<?xml version="1.0" encoding="utf-8"?>
<svg version="1.1" xmlns:xlink="http://www.w3.org/1999/xlink" width="150px" height="150px" xmlns="http://www.w3.org/2000/svg">
  <defs>
    <mask fill="white" id="clip427">
      <path d="M 75 1.64835232691796  C 75.0479038868603 1.64835232691796  74.6117405392838 0.816582507807352  75 0.83242283259016  C 75.3373792816433 0.846187332716876  76.505236442529 1.71350857303897  76.5495211426691 1.64835232691796  C 76.5510597004493 1.64608864106091  76.5481672193391 1.65072392929233  76.5495211426691 1.64835232691796  C 76.6096054476035 1.5431055399871  75.5679493406967 1.24786910326717  75 0.828729281767956  C 75 0.828729281767956  76.5495211426691 0.828729281767956  76.5495211426691 0.828729281767956  C 76.6171715098893 0.82986830830594  76.4818875826982 0.827405741115346  76.5495211426691 0.828729281767956  C 85.095282418781 0.995963750296118  94.5828276283231 2.89261133680102  102.761364133204 5.85011143749211  C 102.989347663284 5.93255422083924  102.534373509511 5.76563446829545  102.761364133204 5.85011143749211  C 107.954783219376 7.78289745759479  112.883302157714 10.247148685989  117.317104736805 13.1993333833121  C 127.324322572334 19.8624977506539  134.674740353703 29.1246927051824  140.612866790597 39.0982696434984  C 140.691761818185 39.2307804075716  139.859844561965 38.9653302743307  139.937916813834 39.0982696434984  C 140.937753643513 40.8007719028992  141.869967526454 42.538278772888  142.730663340942 44.3060691471185  C 145.428736367142 49.8476655747967  147.226960739397 55.9987764930894  148.201637762666 61.9543736526007  C 148.950011511288 66.5271833784352  148.914629267948 72.9280893941094  149.175824175824 75.8241761634589  C 149.4370190837 78.7202629328085  149.238033016313 78.3569312543594  149.175824175824 79.6026781580827  C 149.140261804681 80.3148231424897  149.231492542589 80.1792636011462  149.175824175824 80.8859496393817  C 147.341893168846 104.166917144428  134.625298936075 125.38717594121  116.258206461633 137.665599981119  C 104.479115381831 145.53993693912  90.2323159612815 150  75 150  C 43.9077868629514 150  17.283642190716 130.869924903334  6.25563008154808 103.737838757355  C 5.18284700743428 101.098483405305  4.02646356123083 95.5405060960369  2.91476815867057 89.5537392204665  C 2.35962657681769 86.5641584181761  1.80849283455892 83.44794074625  1.41158187188728 80.8859496393817  C 1.05598484224568 78.5906327717432  0.824175824175824 76.7401698007367  0.824175824175824 75.8241761634589  C 0.824175824175824 71.2321266987705  -0.200070517886163 92.8931453551054  8.94532296971323 109.655588498662  C 13.5136201374964 118.028746159037  23.1443840836526 131.099405353438  36.6858751005093 138.602251459263  C 41.4443352260442 141.238740600537  43.6475859341786 143.006882640717  49.5510586974003 144.632806242722  C 51.1968490827424 145.086086801269  56.6069369602562 147.267138525004  59.9601148316353 147.849102127233  C 63.3132927030143 148.431065729463  59.9501493039962 147.34201756205  61.724945290256 147.849102127233  C 67.3534631138959 149.457250069489  70.4569820423479 150  70.4569820423479 150  C 70.4569820423479 150  79.8306750843003 149.346592603338  88.7268513071512 147.849102127233  C 91.678307982171 147.352284376465  93.1982770750509 146.857736866246  96.1391392333579 146.13678614375  C 107.149926960163 143.437497656371  116.139552576404 138.807766016055  116.258206461633 138.602251459263  L 130.200367084735 125.488269872336  L 138.31858719439 115.781702394321  L 146.083841212321 99.1922961591678  L 148.201637762666 88.2503473657689  C 148.201637762666 88.2503473657689  149.907640539332 69.6607999533279  148.201637762666 60.3660262471072  C 146.907428759677 53.4243598082844  140.612866790597 39.9955048982102  140.612866790597 39.9955048982102  L 139.187698918168 40.7737349387075  L 75 75.8241761634589  L 75 1.64835232691796  C 76.7250848129138 0.652374150362993  75.6671059133586 1.66455756564064  67.5488858037039 1.64835232691796  C 67.5488858037039 1.64835232691796  70.1821629434926 1.64835232691796  75 1.64835232691796  Z " fill-rule="evenodd" />
    </mask>
  </defs>
  <g transform="matrix(1 0 0 1 -688 -1126 )">
    <path d="M 75 1.64835232691796  C 75.0479038868603 1.64835232691796  74.6117405392838 0.816582507807352  75 0.83242283259016  C 75.3373792816433 0.846187332716876  76.505236442529 1.71350857303897  76.5495211426691 1.64835232691796  C 76.5510597004493 1.64608864106091  76.5481672193391 1.65072392929233  76.5495211426691 1.64835232691796  C 76.6096054476035 1.5431055399871  75.5679493406967 1.24786910326717  75 0.828729281767956  C 75 0.828729281767956  76.5495211426691 0.828729281767956  76.5495211426691 0.828729281767956  C 76.6171715098893 0.82986830830594  76.4818875826982 0.827405741115346  76.5495211426691 0.828729281767956  C 85.095282418781 0.995963750296118  94.5828276283231 2.89261133680102  102.761364133204 5.85011143749211  C 102.989347663284 5.93255422083924  102.534373509511 5.76563446829545  102.761364133204 5.85011143749211  C 107.954783219376 7.78289745759479  112.883302157714 10.247148685989  117.317104736805 13.1993333833121  C 127.324322572334 19.8624977506539  134.674740353703 29.1246927051824  140.612866790597 39.0982696434984  C 140.691761818185 39.2307804075716  139.859844561965 38.9653302743307  139.937916813834 39.0982696434984  C 140.937753643513 40.8007719028992  141.869967526454 42.538278772888  142.730663340942 44.3060691471185  C 145.428736367142 49.8476655747967  147.226960739397 55.9987764930894  148.201637762666 61.9543736526007  C 148.950011511288 66.5271833784352  148.914629267948 72.9280893941094  149.175824175824 75.8241761634589  C 149.4370190837 78.7202629328085  149.238033016313 78.3569312543594  149.175824175824 79.6026781580827  C 149.140261804681 80.3148231424897  149.231492542589 80.1792636011462  149.175824175824 80.8859496393817  C 147.341893168846 104.166917144428  134.625298936075 125.38717594121  116.258206461633 137.665599981119  C 104.479115381831 145.53993693912  90.2323159612815 150  75 150  C 43.9077868629514 150  17.283642190716 130.869924903334  6.25563008154808 103.737838757355  C 5.18284700743428 101.098483405305  4.02646356123083 95.5405060960369  2.91476815867057 89.5537392204665  C 2.35962657681769 86.5641584181761  1.80849283455892 83.44794074625  1.41158187188728 80.8859496393817  C 1.05598484224568 78.5906327717432  0.824175824175824 76.7401698007367  0.824175824175824 75.8241761634589  C 0.824175824175824 71.2321266987705  -0.200070517886163 92.8931453551054  8.94532296971323 109.655588498662  C 13.5136201374964 118.028746159037  23.1443840836526 131.099405353438  36.6858751005093 138.602251459263  C 41.4443352260442 141.238740600537  43.6475859341786 143.006882640717  49.5510586974003 144.632806242722  C 51.1968490827424 145.086086801269  56.6069369602562 147.267138525004  59.9601148316353 147.849102127233  C 63.3132927030143 148.431065729463  59.9501493039962 147.34201756205  61.724945290256 147.849102127233  C 67.3534631138959 149.457250069489  70.4569820423479 150  70.4569820423479 150  C 70.4569820423479 150  79.8306750843003 149.346592603338  88.7268513071512 147.849102127233  C 91.678307982171 147.352284376465  93.1982770750509 146.857736866246  96.1391392333579 146.13678614375  C 107.149926960163 143.437497656371  116.139552576404 138.807766016055  116.258206461633 138.602251459263  L 130.200367084735 125.488269872336  L 138.31858719439 115.781702394321  L 146.083841212321 99.1922961591678  L 148.201637762666 88.2503473657689  C 148.201637762666 88.2503473657689  149.907640539332 69.6607999533279  148.201637762666 60.3660262471072  C 146.907428759677 53.4243598082844  140.612866790597 39.9955048982102  140.612866790597 39.9955048982102  L 139.187698918168 40.7737349387075  L 75 75.8241761634589  L 75 1.64835232691796  C 76.7250848129138 0.652374150362993  75.6671059133586 1.66455756564064  67.5488858037039 1.64835232691796  C 67.5488858037039 1.64835232691796  70.1821629434926 1.64835232691796  75 1.64835232691796  Z " fill-rule="nonzero" fill="#8400ff" stroke="none" transform="matrix(1 0 0 1 688 1126 )" />
    <path d="M 75 1.64835232691796  C 75.0479038868603 1.64835232691796  74.6117405392838 0.816582507807352  75 0.83242283259016  C 75.3373792816433 0.846187332716876  76.505236442529 1.71350857303897  76.5495211426691 1.64835232691796  C 76.5510597004493 1.64608864106091  76.5481672193391 1.65072392929233  76.5495211426691 1.64835232691796  C 76.6096054476035 1.5431055399871  75.5679493406967 1.24786910326717  75 0.828729281767956  C 75 0.828729281767956  76.5495211426691 0.828729281767956  76.5495211426691 0.828729281767956  C 76.6171715098893 0.82986830830594  76.4818875826982 0.827405741115346  76.5495211426691 0.828729281767956  C 85.095282418781 0.995963750296118  94.5828276283231 2.89261133680102  102.761364133204 5.85011143749211  C 102.989347663284 5.93255422083924  102.534373509511 5.76563446829545  102.761364133204 5.85011143749211  C 107.954783219376 7.78289745759479  112.883302157714 10.247148685989  117.317104736805 13.1993333833121  C 127.324322572334 19.8624977506539  134.674740353703 29.1246927051824  140.612866790597 39.0982696434984  C 140.691761818185 39.2307804075716  139.859844561965 38.9653302743307  139.937916813834 39.0982696434984  C 140.937753643513 40.8007719028992  141.869967526454 42.538278772888  142.730663340942 44.3060691471185  C 145.428736367142 49.8476655747967  147.226960739397 55.9987764930894  148.201637762666 61.9543736526007  C 148.950011511288 66.5271833784352  148.914629267948 72.9280893941094  149.175824175824 75.8241761634589  C 149.4370190837 78.7202629328085  149.238033016313 78.3569312543594  149.175824175824 79.6026781580827  C 149.140261804681 80.3148231424897  149.231492542589 80.1792636011462  149.175824175824 80.8859496393817  C 147.341893168846 104.166917144428  134.625298936075 125.38717594121  116.258206461633 137.665599981119  C 104.479115381831 145.53993693912  90.2323159612815 150  75 150  C 43.9077868629514 150  17.283642190716 130.869924903334  6.25563008154808 103.737838757355  C 5.18284700743428 101.098483405305  4.02646356123083 95.5405060960369  2.91476815867057 89.5537392204665  C 2.35962657681769 86.5641584181761  1.80849283455892 83.44794074625  1.41158187188728 80.8859496393817  C 1.05598484224568 78.5906327717432  0.824175824175824 76.7401698007367  0.824175824175824 75.8241761634589  C 0.824175824175824 71.2321266987705  -0.200070517886163 92.8931453551054  8.94532296971323 109.655588498662  C 13.5136201374964 118.028746159037  23.1443840836526 131.099405353438  36.6858751005093 138.602251459263  C 41.4443352260442 141.238740600537  43.6475859341786 143.006882640717  49.5510586974003 144.632806242722  C 51.1968490827424 145.086086801269  56.6069369602562 147.267138525004  59.9601148316353 147.849102127233  C 63.3132927030143 148.431065729463  59.9501493039962 147.34201756205  61.724945290256 147.849102127233  C 67.3534631138959 149.457250069489  70.4569820423479 150  70.4569820423479 150  C 70.4569820423479 150  79.8306750843003 149.346592603338  88.7268513071512 147.849102127233  C 91.678307982171 147.352284376465  93.1982770750509 146.857736866246  96.1391392333579 146.13678614375  C 107.149926960163 143.437497656371  116.139552576404 138.807766016055  116.258206461633 138.602251459263  L 130.200367084735 125.488269872336  L 138.31858719439 115.781702394321  L 146.083841212321 99.1922961591678  L 148.201637762666 88.2503473657689  C 148.201637762666 88.2503473657689  149.907640539332 69.6607999533279  148.201637762666 60.3660262471072  C 146.907428759677 53.4243598082844  140.612866790597 39.9955048982102  140.612866790597 39.9955048982102  L 139.187698918168 40.7737349387075  L 75 75.8241761634589  L 75 1.64835232691796  C 76.7250848129138 0.652374150362993  75.6671059133586 1.66455756564064  67.5488858037039 1.64835232691796  C 67.5488858037039 1.64835232691796  70.1821629434926 1.64835232691796  75 1.64835232691796  Z " stroke-width="2" stroke="#797979" fill="none" transform="matrix(1 0 0 1 688 1126 )" mask="url(#clip427)" />
  </g>
</svg>