<?xml version="1.0" encoding="utf-8"?>
<svg version="1.1" xmlns:xlink="http://www.w3.org/1999/xlink" width="150px" height="150px" xmlns="http://www.w3.org/2000/svg">
  <defs>
    <mask fill="white" id="clip34">
      <path d="M 75 149.171270718232  C 33.5786437626905 149.171270718232  0 115.778144324396  0 74.585635359116  C 0 33.3931263938358  33.5786437626905 0  75 0  C 116.42135623731 0  150 33.3931263938358  150 74.585635359116  C 150 77.7943036459656  150 70.183330823602  150 64.9440776175718  C 150 62.4524415422604  150 60.4972375690608  150 60.4972375690608  C 150 60.4972375690608  141.235411693206 35.4911411583774  140.37037037037 36.9811588043632  L 75 74.585635359116  L 37.0731707317073 11.1777388492118  C 36.1958478537258 11.6814629815786  28.3797545606169 15.5878787526372  21.219512195122 22.9012262498316  C 14.7304298404325 29.5290625401854  9.0012168365098 39.1008357682129  5.36585365853654 48.7737501684408  C -2.88521448164355 70.7280562234701  3.78083440332337 97.1410931997591  8.21138211382125 106.582670799084  C 12.8707817172793 116.511935936681  18.217675339179 122.103837341478  25.2845528455285 129.221129227867  C 47.7261317009004 151.822804007372  81.9589728301446 149.171270718232  75 149.171270718232  Z " fill-rule="evenodd" />
    </mask>
  </defs>
  <g transform="matrix(1 0 0 1 -689 -1127 )">
    <path d="M 75 149.171270718232  C 33.5786437626905 149.171270718232  0 115.778144324396  0 74.585635359116  C 0 33.3931263938358  33.5786437626905 0  75 0  C 116.42135623731 0  150 33.3931263938358  150 74.585635359116  C 150 77.7943036459656  150 70.183330823602  150 64.9440776175718  C 150 62.4524415422604  150 60.4972375690608  150 60.4972375690608  C 150 60.4972375690608  141.235411693206 35.4911411583774  140.37037037037 36.9811588043632  L 75 74.585635359116  L 37.0731707317073 11.1777388492118  C 36.1958478537258 11.6814629815786  28.3797545606169 15.5878787526372  21.219512195122 22.9012262498316  C 14.7304298404325 29.5290625401854  9.0012168365098 39.1008357682129  5.36585365853654 48.7737501684408  C -2.88521448164355 70.7280562234701  3.78083440332337 97.1410931997591  8.21138211382125 106.582670799084  C 12.8707817172793 116.511935936681  18.217675339179 122.103837341478  25.2845528455285 129.221129227867  C 47.7261317009004 151.822804007372  81.9589728301446 149.171270718232  75 149.171270718232  Z " fill-rule="nonzero" fill="#008080" stroke="none" transform="matrix(1 0 0 1 689 1127 )" />
    <path d="M 75 149.171270718232  C 33.5786437626905 149.171270718232  0 115.778144324396  0 74.585635359116  C 0 33.3931263938358  33.5786437626905 0  75 0  C 116.42135623731 0  150 33.3931263938358  150 74.585635359116  C 150 77.7943036459656  150 70.183330823602  150 64.9440776175718  C 150 62.4524415422604  150 60.4972375690608  150 60.4972375690608  C 150 60.4972375690608  141.235411693206 35.4911411583774  140.37037037037 36.9811588043632  L 75 74.585635359116  L 37.0731707317073 11.1777388492118  C 36.1958478537258 11.6814629815786  28.3797545606169 15.5878787526372  21.219512195122 22.9012262498316  C 14.7304298404325 29.5290625401854  9.0012168365098 39.1008357682129  5.36585365853654 48.7737501684408  C -2.88521448164355 70.7280562234701  3.78083440332337 97.1410931997591  8.21138211382125 106.582670799084  C 12.8707817172793 116.511935936681  18.217675339179 122.103837341478  25.2845528455285 129.221129227867  C 47.7261317009004 151.822804007372  81.9589728301446 149.171270718232  75 149.171270718232  Z " stroke-width="2" stroke="#797979" fill="none" transform="matrix(1 0 0 1 689 1127 )" mask="url(#clip34)" />
  </g>
</svg>