<?xml version="1.0" encoding="utf-8"?>
<svg version="1.1" xmlns:xlink="http://www.w3.org/1999/xlink" width="7px" height="1px" xmlns="http://www.w3.org/2000/svg">
  <g transform="matrix(1 0 0 1 -647 -341 )">
    <path d="M 6.92985971943889 0.102503681885126  C 6.97661990647963 0.113892979872361  7 0.126990672557683  7 0.14179675994109  C 7 0.156602847324498  6.97661990647963 0.169700540009818  6.92985971943889 0.181089837997056  L 3.66132264529058 0.977201767304863  C 3.61456245824983 0.9885910652921  3.56078824315298 0.994285714285716  3.5 0.994285714285716  C 3.43921175684703 0.994285714285716  3.38543754175017 0.9885910652921  3.33867735470942 0.977201767304863  L 0.0701402805611148 0.181089837997056  C 0.0233800935203661 0.169700540009818  0 0.156602847324498  0 0.14179675994109  C 0 0.126990672557683  0.0233800935203661 0.113892979872361  0.0701402805611148 0.102503681885126  L 0.420841683366739 0.0170839469808541  C 0.467601870407471 0.00569464899361805  0.521376085504341 0  0.582164328657316 0  C 0.642952571810291 0  0.696726786907145 0.00569464899361805  0.743486973947893 0.0170839469808541  L 3.5 0.688483063328425  L 6.25651302605211 0.0170839469808541  C 6.30327321309286 0.00569464899361805  6.35704742818971 0  6.41783567134268 0  C 6.47862391449566 0  6.53239812959253 0.00569464899361805  6.57915831663326 0.0170839469808541  L 6.92985971943889 0.102503681885126  Z " fill-rule="nonzero" fill="#000000" stroke="none" transform="matrix(1 0 0 1 647 341 )" />
  </g>
</svg>