<?xml version="1.0" encoding="utf-8"?>
<svg version="1.1" xmlns:xlink="http://www.w3.org/1999/xlink" width="90px" height="22px" xmlns="http://www.w3.org/2000/svg">
  <defs>
    <mask fill="white" id="clip432">
      <path d="M 0 17.6000000000001  L 0 4.39999999999995  C 0 1.93600000000003  3.30000000000007 0  7.5 0  L 33.6774193548388 0  L 63.9193548387095 0  L 82.5 0  C 86.6999999999999 0  90 1.93600000000003  90 4.39999999999995  L 90 17.6000000000001  C 90 20.064  86.6999999999999 22  82.5 22  L 7.5 22  C 3.30000000000007 22  0 20.064  0 17.6000000000001  Z " fill-rule="evenodd" />
    </mask>
  </defs>
  <g transform="matrix(1 0 0 1 -1182 -269 )">
    <path d="M 0 17.6000000000001  L 0 4.39999999999995  C 0 1.93600000000003  3.30000000000007 0  7.5 0  L 33.6774193548388 0  L 63.9193548387095 0  L 82.5 0  C 86.6999999999999 0  90 1.93600000000003  90 4.39999999999995  L 90 17.6000000000001  C 90 20.064  86.6999999999999 22  82.5 22  L 7.5 22  C 3.30000000000007 22  0 20.064  0 17.6000000000001  Z " fill-rule="nonzero" fill="#f59a23" stroke="none" transform="matrix(1 0 0 1 1182 269 )" />
    <path d="M 0 17.6000000000001  L 0 4.39999999999995  C 0 1.93600000000003  3.30000000000007 0  7.5 0  L 33.6774193548388 0  L 63.9193548387095 0  L 82.5 0  C 86.6999999999999 0  90 1.93600000000003  90 4.39999999999995  L 90 17.6000000000001  C 90 20.064  86.6999999999999 22  82.5 22  L 7.5 22  C 3.30000000000007 22  0 20.064  0 17.6000000000001  Z " stroke-width="2" stroke="#797979" fill="none" transform="matrix(1 0 0 1 1182 269 )" mask="url(#clip432)" />
  </g>
</svg>