<?xml version="1.0" encoding="utf-8"?>
<svg version="1.1" xmlns:xlink="http://www.w3.org/1999/xlink" width="40px" height="25px" xmlns="http://www.w3.org/2000/svg">
  <defs>
    <mask fill="white" id="clip44">
      <path d="M 0 20  L 0 5  C 0 2.19999999999999  1.76000000000004 0  4 0  L 28 0  L 36 0  C 38.24 0  40 2.19999999999999  40 5  L 40 20  C 40 22.8  38.24 25  36 25  L 4 25  C 1.76000000000004 25  0 22.8  0 20  Z " fill-rule="evenodd" />
    </mask>
  </defs>
  <g transform="matrix(1 0 0 1 -1401 -386 )">
    <path d="M 0 20  L 0 5  C 0 2.19999999999999  1.76000000000004 0  4 0  L 28 0  L 36 0  C 38.24 0  40 2.19999999999999  40 5  L 40 20  C 40 22.8  38.24 25  36 25  L 4 25  C 1.76000000000004 25  0 22.8  0 20  Z " fill-rule="nonzero" fill="#ffffff" stroke="none" transform="matrix(1 0 0 1 1401 386 )" />
    <path d="M 0 20  L 0 5  C 0 2.19999999999999  1.76000000000004 0  4 0  L 28 0  L 36 0  C 38.24 0  40 2.19999999999999  40 5  L 40 20  C 40 22.8  38.24 25  36 25  L 4 25  C 1.76000000000004 25  0 22.8  0 20  Z " stroke-width="2" stroke="#797979" fill="none" transform="matrix(1 0 0 1 1401 386 )" mask="url(#clip44)" />
  </g>
</svg>