<?xml version="1.0" encoding="utf-8"?>
<svg version="1.1" xmlns:xlink="http://www.w3.org/1999/xlink" width="22px" height="22px" xmlns="http://www.w3.org/2000/svg">
  <g transform="matrix(1 0 0 1 -746 -623 )">
    <path d="M 757 623  C 763.16 623  768 627.84  768 634  C 768 640.16  763.16 645  757 645  C 750.84 645  746 640.16  746 634  C 746 627.84  750.84 623  757 623  Z " fill-rule="nonzero" fill="#00ffff" stroke="none" />
    <path d="M 757 623.5  C 762.88 623.5  767.5 628.12  767.5 634  C 767.5 639.88  762.88 644.5  757 644.5  C 751.12 644.5  746.5 639.88  746.5 634  C 746.5 628.12  751.12 623.5  757 623.5  Z " stroke-width="1" stroke="#797979" fill="none" />
  </g>
</svg>