<?xml version="1.0" encoding="utf-8"?>
<svg version="1.1" xmlns:xlink="http://www.w3.org/1999/xlink" width="615px" height="380px" xmlns="http://www.w3.org/2000/svg">
  <defs>
    <mask fill="white" id="clip27">
      <path d="M 0 380  L 0 0.503862561974011  L 0 79  L 85.4826254826255 79  L 615 78.3615819209039  L 615 380  L 0 380  Z " fill-rule="evenodd" />
    </mask>
  </defs>
  <g transform="matrix(1 0 0 1 -819 -357 )">
    <path d="M 0 380  L 0 0.503862561974011  L 0 79  L 85.4826254826255 79  L 615 78.3615819209039  L 615 380  L 0 380  Z " fill-rule="nonzero" fill="#ffffff" stroke="none" transform="matrix(1 0 0 1 819 357 )" />
    <path d="M 0 380  L 0 0.503862561974011  L 0 79  L 85.4826254826255 79  L 615 78.3615819209039  L 615 380  L 0 380  Z " stroke-width="2" stroke="#797979" fill="none" transform="matrix(1 0 0 1 819 357 )" mask="url(#clip27)" />
  </g>
</svg>