<?xml version="1.0" encoding="utf-8"?>
<svg version="1.1" xmlns:xlink="http://www.w3.org/1999/xlink" width="12px" height="12px" viewBox="442 772.5  12 12" xmlns="http://www.w3.org/2000/svg">
  <path d="M 448 772.5  C 451.36 772.5  454 775.14  454 778.5  C 454 781.86  451.36 784.5  448 784.5  C 444.64 784.5  442 781.86  442 778.5  C 442 775.14  444.64 772.5  448 772.5  Z " fill-rule="nonzero" fill="#ffffff" stroke="none" />
  <path d="M 448 773  C 451.08 773  453.5 775.42  453.5 778.5  C 453.5 781.58  451.08 784  448 784  C 444.92 784  442.5 781.58  442.5 778.5  C 442.5 775.42  444.92 773  448 773  Z " stroke-width="1" stroke="#797979" fill="none" />
  <path d="M 448 781.5  C 446.32 781.5  445 780.18  445 778.5  C 445 776.82  446.32 775.5  448 775.5  C 449.68 775.5  451 776.82  451 778.5  C 451 780.18  449.68 781.5  448 781.5  " fill-rule="nonzero" fill="#797979" stroke="none" />
</svg>