<?xml version="1.0" encoding="utf-8"?>
<svg version="1.1" xmlns:xlink="http://www.w3.org/1999/xlink" width="12px" height="12px" viewBox="659 772.5  12 12" xmlns="http://www.w3.org/2000/svg">
  <path d="M 665 772.5  C 668.36 772.5  671 775.14  671 778.5  C 671 781.86  668.36 784.5  665 784.5  C 661.64 784.5  659 781.86  659 778.5  C 659 775.14  661.64 772.5  665 772.5  Z " fill-rule="nonzero" fill="#ffffff" stroke="none" />
  <path d="M 665 773  C 668.08 773  670.5 775.42  670.5 778.5  C 670.5 781.58  668.08 784  665 784  C 661.92 784  659.5 781.58  659.5 778.5  C 659.5 775.42  661.92 773  665 773  Z " stroke-width="1" stroke="#797979" fill="none" />
  <path d="M 665 781.5  C 663.32 781.5  662 780.18  662 778.5  C 662 776.82  663.32 775.5  665 775.5  C 666.68 775.5  668 776.82  668 778.5  C 668 780.18  666.68 781.5  665 781.5  " fill-rule="nonzero" fill="#797979" stroke="none" />
</svg>