<?xml version="1.0" encoding="utf-8"?>
<svg version="1.1" xmlns:xlink="http://www.w3.org/1999/xlink" width="615px" height="379px" xmlns="http://www.w3.org/2000/svg">
  <defs>
    <mask fill="white" id="clip79">
      <path d="M 0 379  L 0 0.502536607863553  L 0 79  L 85.4826254826255 79  L 615 78.1553672316384  L 615 379  L 0 379  Z " fill-rule="evenodd" />
    </mask>
  </defs>
  <g transform="matrix(1 0 0 1 -809 -348 )">
    <path d="M 0 379  L 0 0.502536607863553  L 0 79  L 85.4826254826255 79  L 615 78.1553672316384  L 615 379  L 0 379  Z " fill-rule="nonzero" fill="#ffffff" stroke="none" transform="matrix(1 0 0 1 809 348 )" />
    <path d="M 0 379  L 0 0.502536607863553  L 0 79  L 85.4826254826255 79  L 615 78.1553672316384  L 615 379  L 0 379  Z " stroke-width="2" stroke="#797979" fill="none" transform="matrix(1 0 0 1 809 348 )" mask="url(#clip79)" />
  </g>
</svg>