<?xml version="1.0" encoding="utf-8"?>
<svg version="1.1" xmlns:xlink="http://www.w3.org/1999/xlink" width="503px" height="361px" xmlns="http://www.w3.org/2000/svg">
  <defs>
    <mask fill="white" id="clip273">
      <path d="M 0 361  L 0 0  L 173.33655394525 0  L 503 0  L 503 28  L 503 361  L 0 361  Z " fill-rule="evenodd" />
    </mask>
  </defs>
  <g transform="matrix(1 0 0 1 -275 -768 )">
    <path d="M 0 361  L 0 0  L 173.33655394525 0  L 503 0  L 503 28  L 503 361  L 0 361  Z " fill-rule="nonzero" fill="#ffffff" stroke="none" transform="matrix(1 0 0 1 275 768 )" />
    <path d="M 0 361  L 0 0  L 173.33655394525 0  L 503 0  L 503 28  L 503 361  L 0 361  Z " stroke-width="2" stroke="#797979" fill="none" transform="matrix(1 0 0 1 275 768 )" mask="url(#clip273)" />
  </g>
</svg>