<?xml version="1.0" encoding="utf-8"?>
<svg version="1.1" xmlns:xlink="http://www.w3.org/1999/xlink" width="180px" height="180px" xmlns="http://www.w3.org/2000/svg">
  <g transform="matrix(1 0 0 1 -457 -866 )">
    <path d="M 547 866  C 597.4 866  637 905.6  637 956  C 637 1006.4  597.4 1046  547 1046  C 496.6 1046  457 1006.4  457 956  C 457 905.6  496.6 866  547 866  Z " fill-rule="nonzero" fill="#70b603" stroke="none" />
    <path d="M 547 866.5  C 597.12 866.5  636.5 905.88  636.5 956  C 636.5 1006.12  597.12 1045.5  547 1045.5  C 496.88 1045.5  457.5 1006.12  457.5 956  C 457.5 905.88  496.88 866.5  547 866.5  Z " stroke-width="1" stroke="#797979" fill="none" />
  </g>
</svg>