<?xml version="1.0" encoding="utf-8"?>
<svg version="1.1" xmlns:xlink="http://www.w3.org/1999/xlink" width="180px" height="180px" xmlns="http://www.w3.org/2000/svg">
  <defs>
    <mask fill="white" id="clip4">
      <path d="M 90 0  C 139.705627484771 0  180 40.2943725152286  180 90  C 180 139.705627484771  139.705627484771 180  90 180  C 40.2943725152286 180  0 139.705627484771  0 90  C 0 74.2017002895125  3.70415592988036 139.078423100759  11.6033057851241 125.396694214876  L 90 90  L 45 12.0577136594005  C 58.6817288858824 4.15856380415676  74.2017002895125 0  90 0  Z " fill-rule="evenodd" />
    </mask>
  </defs>
  <g transform="matrix(1 0 0 1 -457 -866 )">
    <path d="M 90 0  C 139.705627484771 0  180 40.2943725152286  180 90  C 180 139.705627484771  139.705627484771 180  90 180  C 40.2943725152286 180  0 139.705627484771  0 90  C 0 74.2017002895125  3.70415592988036 139.078423100759  11.6033057851241 125.396694214876  L 90 90  L 45 12.0577136594005  C 58.6817288858824 4.15856380415676  74.2017002895125 0  90 0  Z " fill-rule="nonzero" fill="#02a7f0" stroke="none" transform="matrix(1 0 0 1 457 866 )" />
    <path d="M 90 0  C 139.705627484771 0  180 40.2943725152286  180 90  C 180 139.705627484771  139.705627484771 180  90 180  C 40.2943725152286 180  0 139.705627484771  0 90  C 0 74.2017002895125  3.70415592988036 139.078423100759  11.6033057851241 125.396694214876  L 90 90  L 45 12.0577136594005  C 58.6817288858824 4.15856380415676  74.2017002895125 0  90 0  Z " stroke-width="2" stroke="#797979" fill="none" transform="matrix(1 0 0 1 457 866 )" mask="url(#clip4)" />
  </g>
</svg>