<?xml version="1.0" encoding="utf-8"?>
<svg version="1.1" xmlns:xlink="http://www.w3.org/1999/xlink" width="181px" height="180px" xmlns="http://www.w3.org/2000/svg">
  <defs>
    <mask fill="white" id="clip89">
      <path d="M 91 0  C 140.705627484771 0  181 40.2943725152286  181 90  C 181 139.705627484771  140.705627484771 180  91 180  C 63.9708896949398 180  39.7246942465918 168.084925094749  23.2273334866898 149.220695115982  C 22.8463735233807 148.785078991369  22.469545615373 148.345757239496  22.0969109123619 147.902791010057  C 8.9312798369765 132.252262735266  1 112.052356199058  1 90  C 1 87.8074037315484  -0.0420953972720781 109.259610306519  10.1612903225807 129.129032258065  C 13.6598202241463 135.941846037029  20.386260768301 146.022670525888  27.1563342318059 152.622641509434  C 38.1516308503236 163.341674180037  50.3369272237196 169.603773584906  50.3369272237196 169.603773584906  L 91 90  L 46 12.0577136594005  C 59.6817288858824 4.15856380415676  75.2017002895125 0  91 0  Z " fill-rule="evenodd" />
    </mask>
  </defs>
  <g transform="matrix(1 0 0 1 -456 -866 )">
    <path d="M 91 0  C 140.705627484771 0  181 40.2943725152286  181 90  C 181 139.705627484771  140.705627484771 180  91 180  C 63.9708896949398 180  39.7246942465918 168.084925094749  23.2273334866898 149.220695115982  C 22.8463735233807 148.785078991369  22.469545615373 148.345757239496  22.0969109123619 147.902791010057  C 8.9312798369765 132.252262735266  1 112.052356199058  1 90  C 1 87.8074037315484  -0.0420953972720781 109.259610306519  10.1612903225807 129.129032258065  C 13.6598202241463 135.941846037029  20.386260768301 146.022670525888  27.1563342318059 152.622641509434  C 38.1516308503236 163.341674180037  50.3369272237196 169.603773584906  50.3369272237196 169.603773584906  L 91 90  L 46 12.0577136594005  C 59.6817288858824 4.15856380415676  75.2017002895125 0  91 0  Z " fill-rule="nonzero" fill="#d9001b" stroke="none" transform="matrix(1 0 0 1 456 866 )" />
    <path d="M 91 0  C 140.705627484771 0  181 40.2943725152286  181 90  C 181 139.705627484771  140.705627484771 180  91 180  C 63.9708896949398 180  39.7246942465918 168.084925094749  23.2273334866898 149.220695115982  C 22.8463735233807 148.785078991369  22.469545615373 148.345757239496  22.0969109123619 147.902791010057  C 8.9312798369765 132.252262735266  1 112.052356199058  1 90  C 1 87.8074037315484  -0.0420953972720781 109.259610306519  10.1612903225807 129.129032258065  C 13.6598202241463 135.941846037029  20.386260768301 146.022670525888  27.1563342318059 152.622641509434  C 38.1516308503236 163.341674180037  50.3369272237196 169.603773584906  50.3369272237196 169.603773584906  L 91 90  L 46 12.0577136594005  C 59.6817288858824 4.15856380415676  75.2017002895125 0  91 0  Z " stroke-width="2" stroke="#797979" fill="none" transform="matrix(1 0 0 1 456 866 )" mask="url(#clip89)" />
  </g>
</svg>