<?xml version="1.0" encoding="utf-8"?>
<svg version="1.1" xmlns:xlink="http://www.w3.org/1999/xlink" width="181px" height="180px" xmlns="http://www.w3.org/2000/svg">
  <defs>
    <mask fill="white" id="clip276">
      <path d="M 91 180  C 140.705627484771 180  181 139.705627484771  181 90  C 181 40.2943725152286  140.705627484771 0  91 0  C 41.2943725152286 0  1 40.2943725152286  1 90  C 1 94.6293647966219  1.35707996338158 99.2348306064057  2.06072302426185 103.77714795154  C 3.57800908327022 113.571879352349  6.70672881061671 123.072985832402  11.3414358661815 131.886936292903  C 11.5419722421894 132.268301859803  3.49991454522444 118.418310233144  1 101.461538461538  C -0.139724234079381 93.7308567241283  1.21982423292263 84.2276941444161  2.06072302426185 76.1410256410256  C 3.11479446317492 66.004340473711  7.37078686547693 54.7459569208316  11.3414358661815 47.2948717948718  C 13.4790165977921 43.283614191388  18.7065246608643 33.986308244558  25.2820512820513 27.4230769230769  C 34.0872258730479 18.6343667564216  44.4238498681631 12.8458983230714  44.5128205128204 13  C 45.1060707898445 14.0275396214099  91 90  91 90  L 128.637379474509 164.242312130516  L 129.806451612903 166.548387096774  C 137.003869791937 170.70381841991  121.51742794432 174.20982827038  107.521429336125 176.599713775168  C 94.9121295329646 178.752813648117  83.512562935784 180  91 180  Z " fill-rule="evenodd" />
    </mask>
  </defs>
  <g transform="matrix(1 0 0 1 -457 -866 )">
    <path d="M 91 180  C 140.705627484771 180  181 139.705627484771  181 90  C 181 40.2943725152286  140.705627484771 0  91 0  C 41.2943725152286 0  1 40.2943725152286  1 90  C 1 94.6293647966219  1.35707996338158 99.2348306064057  2.06072302426185 103.77714795154  C 3.57800908327022 113.571879352349  6.70672881061671 123.072985832402  11.3414358661815 131.886936292903  C 11.5419722421894 132.268301859803  3.49991454522444 118.418310233144  1 101.461538461538  C -0.139724234079381 93.7308567241283  1.21982423292263 84.2276941444161  2.06072302426185 76.1410256410256  C 3.11479446317492 66.004340473711  7.37078686547693 54.7459569208316  11.3414358661815 47.2948717948718  C 13.4790165977921 43.283614191388  18.7065246608643 33.986308244558  25.2820512820513 27.4230769230769  C 34.0872258730479 18.6343667564216  44.4238498681631 12.8458983230714  44.5128205128204 13  C 45.1060707898445 14.0275396214099  91 90  91 90  L 128.637379474509 164.242312130516  L 129.806451612903 166.548387096774  C 137.003869791937 170.70381841991  121.51742794432 174.20982827038  107.521429336125 176.599713775168  C 94.9121295329646 178.752813648117  83.512562935784 180  91 180  Z " fill-rule="nonzero" fill="#0000bf" stroke="none" transform="matrix(1 0 0 1 457 866 )" />
    <path d="M 91 180  C 140.705627484771 180  181 139.705627484771  181 90  C 181 40.2943725152286  140.705627484771 0  91 0  C 41.2943725152286 0  1 40.2943725152286  1 90  C 1 94.6293647966219  1.35707996338158 99.2348306064057  2.06072302426185 103.77714795154  C 3.57800908327022 113.571879352349  6.70672881061671 123.072985832402  11.3414358661815 131.886936292903  C 11.5419722421894 132.268301859803  3.49991454522444 118.418310233144  1 101.461538461538  C -0.139724234079381 93.7308567241283  1.21982423292263 84.2276941444161  2.06072302426185 76.1410256410256  C 3.11479446317492 66.004340473711  7.37078686547693 54.7459569208316  11.3414358661815 47.2948717948718  C 13.4790165977921 43.283614191388  18.7065246608643 33.986308244558  25.2820512820513 27.4230769230769  C 34.0872258730479 18.6343667564216  44.4238498681631 12.8458983230714  44.5128205128204 13  C 45.1060707898445 14.0275396214099  91 90  91 90  L 128.637379474509 164.242312130516  L 129.806451612903 166.548387096774  C 137.003869791937 170.70381841991  121.51742794432 174.20982827038  107.521429336125 176.599713775168  C 94.9121295329646 178.752813648117  83.512562935784 180  91 180  Z " stroke-width="2" stroke="#797979" fill="none" transform="matrix(1 0 0 1 457 866 )" mask="url(#clip276)" />
  </g>
</svg>