<?xml version="1.0" encoding="utf-8"?>
<svg version="1.1" xmlns:xlink="http://www.w3.org/1999/xlink" width="180px" height="180px" xmlns="http://www.w3.org/2000/svg">
  <g transform="matrix(1 0 0 1 -457 -866 )">
    <path d="M 548.659670459298 866.515361145968  C 597.400435839648 867.413855833326  636.5 907.189597525116  636.5 956  C 636.5 1005.42948510986  596.429485109856 1045.5  547 1045.5  C 497.570514890144 1045.5  457.5 1005.42948510986  457.5 956  C 457.5 940.456167067176  461.548166677323 925.183273677482  469.241935574046 911.683710841203  L 546.75 956.433012701892  A 0.5 0.5 0 0 0 547.499958021605 956.006478937645 L 548.659670131294 866.515361139921  Z " fill-rule="nonzero" fill="#f59a23" stroke="none" />
    <path d="M 548.659670459298 866.515361145968  C 597.400435839648 867.413855833326  636.5 907.189597525116  636.5 956  C 636.5 1005.42948510986  596.429485109856 1045.5  547 1045.5  C 497.570514890144 1045.5  457.5 1005.42948510986  457.5 956  C 457.5 940.456167067176  461.548166677323 925.183273677482  469.241935574046 911.683710841203  L 546.75 956.433012701892  A 0.5 0.5 0 0 0 547.499958021605 956.006478937645 L 548.659670131294 866.515361139921  Z " stroke-width="1" stroke="#797979" fill="none" />
  </g>
</svg>