<?xml version="1.0" encoding="utf-8"?>
<svg version="1.1" xmlns:xlink="http://www.w3.org/1999/xlink" width="181px" height="180px" xmlns="http://www.w3.org/2000/svg">
  <defs>
    <mask fill="white" id="clip93">
      <path d="M 90 0  C 139.705627484771 0  180 40.2943725152286  180 90  C 180 121.402355695338  163.917345477909 149.048406158791  139.539412318974 165.15077550511  C 139.466526784579 165.198918626481  139.61244594823 165.102838969788  139.539412318974 165.15077550511  C 125.374579259484 174.448040713045  108.209384524209 180  90 180  C 65.9654339544388 180  43.6133880497425 169.917811800165  27.6057692307692 154.346153846154  C 23.4022001409293 150.257067218513  20.4195188207214 145.910678921831  17.0288461538461 141.125  C 14.2014838735281 137.134391233343  9.3780086866459 128.353154075515  6.7671012152216 123.290331067365  C 5.80304920935191 121.420933269937  5.14065498600621 120.058497839835  4.99179022749786 119.631383524114  C 2.10767216166983 111.356435668839  0.397684811073646 102.531217657037  0.0613866357804227 93.3552879487789  C 0.0205810441964331 92.2419032574945  0 91.1233551089653  0 90  C 0 88.7294207085081  0.0662206507270184 90.0415872977704  0.354288926821823 92.7552731945611  C 0.377888406789111 92.9775870738501  0.402976797909787 93.209307128776  0.429639667098854 93.4497838966496  C 0.453415475853944 93.6642217953788  0.478443253244677 93.885622718988  0.504783671664086 94.1135261570616  C 0.638226333885655 95.2681031657417  0.805358144362344 96.589568279438  1.01406783520144 98.0180451173651  C 1.13058331190484 98.8155130832251  1.26005011775669 99.646290789557  1.40384615384608 100.5  C 2.15712046800172 104.972148450499  3.34868592703231 109.50470306944  4.99179022749786 114.923076923077  C 9.23396401045932 128.912257951738  17.0288461538461 142.567307692308  17.0288461538461 142.567307692308  C 17.0288461538461 142.567307692308  27.2852564102564 154.586538461538  33.1346153846154 159.634615384615  C 38.1826923076923 163.801282051282  49.7211538461538 170.211538461538  49.7211538461538 170.211538461538  L 70.153846153846 177.663461538462  L 94.4326923076922 180  L 105.490384615384 177.663461538462  L 108.377639831051 177.663461538462  L 108.377639831051 176.900790349418  L 118.230769230769 174.298076923077  L 137.461538461538 166.605769230769  L 145.634615384615 161.076923076923  L 154.769230769231 151.701923076923  C 154.769230769231 151.701923076923  163.103451298765 143.728409100667  169.432692307692 132.951923076923  C 175.133381303607 123.245641517486  178.822905429322 111.143280220068  180 102.663461538462  C 181.241445753471 93.9453993879838  180.901666938472 79.7530984430181  177.846153846154 67.8076923076923  C 174.985191430414 56.6228742554227  169.432692307692 47.375  169.432692307692 47.375  L 90 90  L 118.230769230769 4.34615384615381  C 121.695986360204 2.34550980367408  78.2029883744719 0  90 0  Z " fill-rule="evenodd" />
    </mask>
  </defs>
  <g transform="matrix(1 0 0 1 -457 -866 )">
    <path d="M 90 0  C 139.705627484771 0  180 40.2943725152286  180 90  C 180 121.402355695338  163.917345477909 149.048406158791  139.539412318974 165.15077550511  C 139.466526784579 165.198918626481  139.61244594823 165.102838969788  139.539412318974 165.15077550511  C 125.374579259484 174.448040713045  108.209384524209 180  90 180  C 65.9654339544388 180  43.6133880497425 169.917811800165  27.6057692307692 154.346153846154  C 23.4022001409293 150.257067218513  20.4195188207214 145.910678921831  17.0288461538461 141.125  C 14.2014838735281 137.134391233343  9.3780086866459 128.353154075515  6.7671012152216 123.290331067365  C 5.80304920935191 121.420933269937  5.14065498600621 120.058497839835  4.99179022749786 119.631383524114  C 2.10767216166983 111.356435668839  0.397684811073646 102.531217657037  0.0613866357804227 93.3552879487789  C 0.0205810441964331 92.2419032574945  0 91.1233551089653  0 90  C 0 88.7294207085081  0.0662206507270184 90.0415872977704  0.354288926821823 92.7552731945611  C 0.377888406789111 92.9775870738501  0.402976797909787 93.209307128776  0.429639667098854 93.4497838966496  C 0.453415475853944 93.6642217953788  0.478443253244677 93.885622718988  0.504783671664086 94.1135261570616  C 0.638226333885655 95.2681031657417  0.805358144362344 96.589568279438  1.01406783520144 98.0180451173651  C 1.13058331190484 98.8155130832251  1.26005011775669 99.646290789557  1.40384615384608 100.5  C 2.15712046800172 104.972148450499  3.34868592703231 109.50470306944  4.99179022749786 114.923076923077  C 9.23396401045932 128.912257951738  17.0288461538461 142.567307692308  17.0288461538461 142.567307692308  C 17.0288461538461 142.567307692308  27.2852564102564 154.586538461538  33.1346153846154 159.634615384615  C 38.1826923076923 163.801282051282  49.7211538461538 170.211538461538  49.7211538461538 170.211538461538  L 70.153846153846 177.663461538462  L 94.4326923076922 180  L 105.490384615384 177.663461538462  L 108.377639831051 177.663461538462  L 108.377639831051 176.900790349418  L 118.230769230769 174.298076923077  L 137.461538461538 166.605769230769  L 145.634615384615 161.076923076923  L 154.769230769231 151.701923076923  C 154.769230769231 151.701923076923  163.103451298765 143.728409100667  169.432692307692 132.951923076923  C 175.133381303607 123.245641517486  178.822905429322 111.143280220068  180 102.663461538462  C 181.241445753471 93.9453993879838  180.901666938472 79.7530984430181  177.846153846154 67.8076923076923  C 174.985191430414 56.6228742554227  169.432692307692 47.375  169.432692307692 47.375  L 90 90  L 118.230769230769 4.34615384615381  C 121.695986360204 2.34550980367408  78.2029883744719 0  90 0  Z " fill-rule="nonzero" fill="#6d000e" stroke="none" transform="matrix(1 0 0 1 457 866 )" />
    <path d="M 90 0  C 139.705627484771 0  180 40.2943725152286  180 90  C 180 121.402355695338  163.917345477909 149.048406158791  139.539412318974 165.15077550511  C 139.466526784579 165.198918626481  139.61244594823 165.102838969788  139.539412318974 165.15077550511  C 125.374579259484 174.448040713045  108.209384524209 180  90 180  C 65.9654339544388 180  43.6133880497425 169.917811800165  27.6057692307692 154.346153846154  C 23.4022001409293 150.257067218513  20.4195188207214 145.910678921831  17.0288461538461 141.125  C 14.2014838735281 137.134391233343  9.3780086866459 128.353154075515  6.7671012152216 123.290331067365  C 5.80304920935191 121.420933269937  5.14065498600621 120.058497839835  4.99179022749786 119.631383524114  C 2.10767216166983 111.356435668839  0.397684811073646 102.531217657037  0.0613866357804227 93.3552879487789  C 0.0205810441964331 92.2419032574945  0 91.1233551089653  0 90  C 0 88.7294207085081  0.0662206507270184 90.0415872977704  0.354288926821823 92.7552731945611  C 0.377888406789111 92.9775870738501  0.402976797909787 93.209307128776  0.429639667098854 93.4497838966496  C 0.453415475853944 93.6642217953788  0.478443253244677 93.885622718988  0.504783671664086 94.1135261570616  C 0.638226333885655 95.2681031657417  0.805358144362344 96.589568279438  1.01406783520144 98.0180451173651  C 1.13058331190484 98.8155130832251  1.26005011775669 99.646290789557  1.40384615384608 100.5  C 2.15712046800172 104.972148450499  3.34868592703231 109.50470306944  4.99179022749786 114.923076923077  C 9.23396401045932 128.912257951738  17.0288461538461 142.567307692308  17.0288461538461 142.567307692308  C 17.0288461538461 142.567307692308  27.2852564102564 154.586538461538  33.1346153846154 159.634615384615  C 38.1826923076923 163.801282051282  49.7211538461538 170.211538461538  49.7211538461538 170.211538461538  L 70.153846153846 177.663461538462  L 94.4326923076922 180  L 105.490384615384 177.663461538462  L 108.377639831051 177.663461538462  L 108.377639831051 176.900790349418  L 118.230769230769 174.298076923077  L 137.461538461538 166.605769230769  L 145.634615384615 161.076923076923  L 154.769230769231 151.701923076923  C 154.769230769231 151.701923076923  163.103451298765 143.728409100667  169.432692307692 132.951923076923  C 175.133381303607 123.245641517486  178.822905429322 111.143280220068  180 102.663461538462  C 181.241445753471 93.9453993879838  180.901666938472 79.7530984430181  177.846153846154 67.8076923076923  C 174.985191430414 56.6228742554227  169.432692307692 47.375  169.432692307692 47.375  L 90 90  L 118.230769230769 4.34615384615381  C 121.695986360204 2.34550980367408  78.2029883744719 0  90 0  Z " stroke-width="2" stroke="#797979" fill="none" transform="matrix(1 0 0 1 457 866 )" mask="url(#clip93)" />
  </g>
</svg>