<?xml version="1.0" encoding="utf-8"?>
<svg version="1.1" xmlns:xlink="http://www.w3.org/1999/xlink" width="182px" height="181px" xmlns="http://www.w3.org/2000/svg">
  <defs>
    <mask fill="white" id="clip54">
      <path d="M 91 1  C 91.4357687324196 1  91.8708141147347 1.00309702995639  92.3051153369181 1.00927027984199  C 96.7601050015423 1.07259444987102  101.136791793055 1.45960817075081  105.41271416799 2.14784989901591  C 116.249344608714 3.892086723055  125.823384896218 7.29355776399211  135 12.5416666666666  C 162.11301803735 28.0476097329231  181 57.5287823651314  181 91  C 181 140.705627484771  140.705627484771 181  91 181  C 42.1624234261956 181  2.37355578332676 143.96368286548  1 95.4583333333334  C 0.975586086930889 94.5961875062463  1 91.868050910967  1 91  C 1 89.9471478564665  1.13914609179346 98.7975623322513  3.125 108.375  C 4.20233602852272 113.57080952947  8.76916812250533 128.486636449979  15.0000000000001 138.791666666667  C 16.5770215771737 141.399866554685  23.9956283287137 151.113973991968  31.4583333333334 157.958333333333  C 40.5463537163153 166.293337485885  49.7916666666667 171.708333333333  49.7916666666667 171.708333333333  C 49.7916666666667 171.708333333333  61.3329007502957 175.487347691927  72.2916666666667 177.958333333333  C 74.6913491735947 178.49941442438  88.2277063674612 180.749856851727  102.5 179.208333333333  C 118.16688508299 177.516182622509  135.148057503762 171.515328904864  149.375 159.833333333333  C 162.220701151442 149.285499601383  172.721608833264 132.92433145182  177.5 118.583333333333  C 179.756316909354 111.811632268547  183.639344879336 92.7389849727267  181 76.2916666666667  C 178.620446030708 61.4632591077244  169.791666666667 48.7916666666669  169.791666666667 48.7916666666669  L 91 91  C 91 91  143.541666666667 17.9583333333333  143.541666666667 17.9583333333333  C 143.541666666667 17.9583333333333  137.319879522647 13.9104099755899  131.041666666667 10.6666666666667  C 124.820136568017 7.45220944903088  118.541666666667 5.04166666666663  118.541666666667 5.04166666666663  C 118.541666666667 5.04166666666663  111.85433650718 3.07365709882402  105.41271416799 2.14784989901591  C 98.1346843049714 1.10183197172944  91 1.07927300267158  91 1  C 93.4838763134105 -0.434066658181223  85.802665955659 1  91 1  Z " fill-rule="evenodd" />
    </mask>
  </defs>
  <g transform="matrix(1 0 0 1 -456 -865 )">
    <path d="M 91 1  C 91.4357687324196 1  91.8708141147347 1.00309702995639  92.3051153369181 1.00927027984199  C 96.7601050015423 1.07259444987102  101.136791793055 1.45960817075081  105.41271416799 2.14784989901591  C 116.249344608714 3.892086723055  125.823384896218 7.29355776399211  135 12.5416666666666  C 162.11301803735 28.0476097329231  181 57.5287823651314  181 91  C 181 140.705627484771  140.705627484771 181  91 181  C 42.1624234261956 181  2.37355578332676 143.96368286548  1 95.4583333333334  C 0.975586086930889 94.5961875062463  1 91.868050910967  1 91  C 1 89.9471478564665  1.13914609179346 98.7975623322513  3.125 108.375  C 4.20233602852272 113.57080952947  8.76916812250533 128.486636449979  15.0000000000001 138.791666666667  C 16.5770215771737 141.399866554685  23.9956283287137 151.113973991968  31.4583333333334 157.958333333333  C 40.5463537163153 166.293337485885  49.7916666666667 171.708333333333  49.7916666666667 171.708333333333  C 49.7916666666667 171.708333333333  61.3329007502957 175.487347691927  72.2916666666667 177.958333333333  C 74.6913491735947 178.49941442438  88.2277063674612 180.749856851727  102.5 179.208333333333  C 118.16688508299 177.516182622509  135.148057503762 171.515328904864  149.375 159.833333333333  C 162.220701151442 149.285499601383  172.721608833264 132.92433145182  177.5 118.583333333333  C 179.756316909354 111.811632268547  183.639344879336 92.7389849727267  181 76.2916666666667  C 178.620446030708 61.4632591077244  169.791666666667 48.7916666666669  169.791666666667 48.7916666666669  L 91 91  C 91 91  143.541666666667 17.9583333333333  143.541666666667 17.9583333333333  C 143.541666666667 17.9583333333333  137.319879522647 13.9104099755899  131.041666666667 10.6666666666667  C 124.820136568017 7.45220944903088  118.541666666667 5.04166666666663  118.541666666667 5.04166666666663  C 118.541666666667 5.04166666666663  111.85433650718 3.07365709882402  105.41271416799 2.14784989901591  C 98.1346843049714 1.10183197172944  91 1.07927300267158  91 1  C 93.4838763134105 -0.434066658181223  85.802665955659 1  91 1  Z " fill-rule="nonzero" fill="#ffff00" stroke="none" transform="matrix(1 0 0 1 456 865 )" />
    <path d="M 91 1  C 91.4357687324196 1  91.8708141147347 1.00309702995639  92.3051153369181 1.00927027984199  C 96.7601050015423 1.07259444987102  101.136791793055 1.45960817075081  105.41271416799 2.14784989901591  C 116.249344608714 3.892086723055  125.823384896218 7.29355776399211  135 12.5416666666666  C 162.11301803735 28.0476097329231  181 57.5287823651314  181 91  C 181 140.705627484771  140.705627484771 181  91 181  C 42.1624234261956 181  2.37355578332676 143.96368286548  1 95.4583333333334  C 0.975586086930889 94.5961875062463  1 91.868050910967  1 91  C 1 89.9471478564665  1.13914609179346 98.7975623322513  3.125 108.375  C 4.20233602852272 113.57080952947  8.76916812250533 128.486636449979  15.0000000000001 138.791666666667  C 16.5770215771737 141.399866554685  23.9956283287137 151.113973991968  31.4583333333334 157.958333333333  C 40.5463537163153 166.293337485885  49.7916666666667 171.708333333333  49.7916666666667 171.708333333333  C 49.7916666666667 171.708333333333  61.3329007502957 175.487347691927  72.2916666666667 177.958333333333  C 74.6913491735947 178.49941442438  88.2277063674612 180.749856851727  102.5 179.208333333333  C 118.16688508299 177.516182622509  135.148057503762 171.515328904864  149.375 159.833333333333  C 162.220701151442 149.285499601383  172.721608833264 132.92433145182  177.5 118.583333333333  C 179.756316909354 111.811632268547  183.639344879336 92.7389849727267  181 76.2916666666667  C 178.620446030708 61.4632591077244  169.791666666667 48.7916666666669  169.791666666667 48.7916666666669  L 91 91  C 91 91  143.541666666667 17.9583333333333  143.541666666667 17.9583333333333  C 143.541666666667 17.9583333333333  137.319879522647 13.9104099755899  131.041666666667 10.6666666666667  C 124.820136568017 7.45220944903088  118.541666666667 5.04166666666663  118.541666666667 5.04166666666663  C 118.541666666667 5.04166666666663  111.85433650718 3.07365709882402  105.41271416799 2.14784989901591  C 98.1346843049714 1.10183197172944  91 1.07927300267158  91 1  C 93.4838763134105 -0.434066658181223  85.802665955659 1  91 1  Z " stroke-width="2" stroke="#797979" fill="none" transform="matrix(1 0 0 1 456 865 )" mask="url(#clip54)" />
  </g>
</svg>