<?xml version="1.0" encoding="utf-8"?>
<svg version="1.1" xmlns:xlink="http://www.w3.org/1999/xlink" width="180px" height="181px" xmlns="http://www.w3.org/2000/svg">
  <defs>
    <mask fill="white" id="clip399">
      <path d="M 90 180  C 40.2943725152286 180  0 139.705627484771  0 90  C 0 40.2943725152286  40.2943725152286 0  90 0  C 139.705627484771 0  180 40.2943725152286  180 90  C 180 93.8717930661318  180 84.6878858604798  180 78.3658536585366  C 180 75.3592794609942  180 73  180 73  C 180 73  169.482494031847 42.8259769977753  168.444444444445 44.6239316239316  L 90 90  L 44.4878048780488 13.4878048780488  C 43.435017424471 14.0956319977715  34.0557054727403 18.8093736948489  25.4634146341464 27.6341463414634  C 17.676515808519 35.631735465157  10.8014602038118 47.1816751603102  6.43902439024384 58.8536585365853  C -3.46225737797226 85.3451878429872  4.53700128398805 117.216919127709  9.8536585365855 128.609756097561  C 15.4449380607351 140.591069363595  21.8612104070148 147.33863039205  30.3414634146342 155.926829268293  C 57.2713580410805 183.199516835562  98.3507673961735 180  90 180  Z " fill-rule="evenodd" />
    </mask>
  </defs>
  <g transform="matrix(1 0 0 1 -457 -866 )">
    <path d="M 90 180  C 40.2943725152286 180  0 139.705627484771  0 90  C 0 40.2943725152286  40.2943725152286 0  90 0  C 139.705627484771 0  180 40.2943725152286  180 90  C 180 93.8717930661318  180 84.6878858604798  180 78.3658536585366  C 180 75.3592794609942  180 73  180 73  C 180 73  169.482494031847 42.8259769977753  168.444444444445 44.6239316239316  L 90 90  L 44.4878048780488 13.4878048780488  C 43.435017424471 14.0956319977715  34.0557054727403 18.8093736948489  25.4634146341464 27.6341463414634  C 17.676515808519 35.631735465157  10.8014602038118 47.1816751603102  6.43902439024384 58.8536585365853  C -3.46225737797226 85.3451878429872  4.53700128398805 117.216919127709  9.8536585365855 128.609756097561  C 15.4449380607351 140.591069363595  21.8612104070148 147.33863039205  30.3414634146342 155.926829268293  C 57.2713580410805 183.199516835562  98.3507673961735 180  90 180  Z " fill-rule="nonzero" fill="#008080" stroke="none" transform="matrix(1 0 0 1 457 866 )" />
    <path d="M 90 180  C 40.2943725152286 180  0 139.705627484771  0 90  C 0 40.2943725152286  40.2943725152286 0  90 0  C 139.705627484771 0  180 40.2943725152286  180 90  C 180 93.8717930661318  180 84.6878858604798  180 78.3658536585366  C 180 75.3592794609942  180 73  180 73  C 180 73  169.482494031847 42.8259769977753  168.444444444445 44.6239316239316  L 90 90  L 44.4878048780488 13.4878048780488  C 43.435017424471 14.0956319977715  34.0557054727403 18.8093736948489  25.4634146341464 27.6341463414634  C 17.676515808519 35.631735465157  10.8014602038118 47.1816751603102  6.43902439024384 58.8536585365853  C -3.46225737797226 85.3451878429872  4.53700128398805 117.216919127709  9.8536585365855 128.609756097561  C 15.4449380607351 140.591069363595  21.8612104070148 147.33863039205  30.3414634146342 155.926829268293  C 57.2713580410805 183.199516835562  98.3507673961735 180  90 180  Z " stroke-width="2" stroke="#797979" fill="none" transform="matrix(1 0 0 1 457 866 )" mask="url(#clip399)" />
  </g>
</svg>