<?xml version="1.0" encoding="utf-8"?>
<svg version="1.1" xmlns:xlink="http://www.w3.org/1999/xlink" width="182px" height="181px" xmlns="http://www.w3.org/2000/svg">
  <defs>
    <mask fill="white" id="clip400">
      <path d="M 91 1.98901180781434  C 91.0581233827238 1.98901180781434  90.528911854331 0.985342892754204  91 1.00445688465879  C 91.4093535283939 1.02106604814503  92.8263535502686 2.06763367813369  92.8800856531052 1.98901180781434  C 92.8819524365451 1.98628029354683  92.8784428927981 1.99187354134608  92.8800856531052 1.98901180781434  C 92.9529879430923 1.8620140182511  91.689111866712 1.50576205127572  91 1  C 91 1  92.8800856531052 1  92.8800856531052 1  C 92.9621680986656 1.00137442535583  92.7980236003405 0.998402927612517  92.8800856531052 1  C 103.248942668121 1.20179625869065  114.760497522365 3.49041767973989  124.683788481621 7.05913446790714  C 124.960408498118 7.15861542647934  124.40837319154 6.95719892507651  124.683788481621 7.05913446790714  C 130.985136972843 9.39136293216438  136.965073284693 12.3648927477601  142.344753747324 15.9271956158632  C 154.486844721099 23.9674139524557  163.40535162916 35.1437958642534  170.610278372591 47.1785787031547  C 170.706004339397 47.3384750251364  169.696611401851 47.0181651976924  169.791339067451 47.1785787031547  C 171.004474420796 49.2329314294984  172.135560598764 51.3295230526181  173.179871520343 53.4626567708564  C 176.453533458799 60.1495164602547  178.635379030468 67.5718569683279  179.817987152034 74.7582775408048  C 180.72601396703 80.2761346099785  180.683083511777 87.9998945355586  181 91.4945059039071  C 181.316916488223 94.9891172722556  181.075480059794 94.550697046927  181 96.0538983107531  C 180.95685098968 96.9132199252709  181.067544285008 96.7496447453831  181 97.6023792315206  C 178.7748303782 125.69474668761  163.345362709104 151.300525635726  141.059957173448 166.116490643883  C 126.767993329954 175.618190573204  109.481876699688 181  91 181  C 53.2747813937144 181  20.970819191402 157.916376050023  7.590164498945 125.176992100542  C 6.28852103568693 121.992169975735  4.88544245429341 115.285544022551  3.53658536585363 108.061511992696  C 2.86301357987213 104.454084491266  2.19430463926483 100.693848500475  1.71271933788989 97.6023792315206  C 1.28126160859142 94.8326968779034  1 92.599804892889  1 91.4945059039071  C 1 85.953432883183  -0.242752228368545 112.091062061827  10.8536585365854 132.317743455052  C 16.396525766829 142.421353698571  28.0818526881651 158.193282459815  44.5121951219513 167.246716760844  C 50.2857934076003 170.428080324648  52.95907093347 172.561638386465  60.1219512195123 174.523586199551  C 62.1188435537274 175.070544740198  68.6830835117776 177.702347153504  72.7516059957175 178.404583233528  C 76.8201284796573 179.106819313552  72.7395144888487 177.79270119154  74.8929336188439 178.404583233528  C 81.722201911527 180.345081750516  85.4878048780488 181  85.4878048780488 181  C 85.4878048780488 181  96.8612191022844 180.211555074694  107.655246252677 178.404583233528  C 111.236347018367 177.805089814267  113.080576184395 177.208335818603  116.648822269808 176.338388613458  C 130.008578044998 173.081247172021  140.91599045937 167.494704326039  141.059957173448 167.246716760844  L 157.976445396146 151.422512312619  L 167.826552462527 139.709920889147  L 177.248394004283 119.692037365396  L 179.817987152034 106.488752488028  C 179.817987152034 106.488752488028  181.887937187723 84.0573652770156  179.817987152034 72.8416716715094  C 178.247680228408 64.4653941686631  170.610278372591 48.2612425771737  170.610278372591 48.2612425771737  L 168.881074687377 49.2003068260403  L 91 91.4945059039071  L 91 1.98901180781434  C 93.0931029063354 0.787198141438012  91.8094218415417 2.00856612920637  81.9593147751607 1.98901180781434  C 81.9593147751607 1.98901180781434  85.154357704771 1.98901180781434  91 1.98901180781434  Z " fill-rule="evenodd" />
    </mask>
  </defs>
  <g transform="matrix(1 0 0 1 -456 -865 )">
    <path d="M 91 1.98901180781434  C 91.0581233827238 1.98901180781434  90.528911854331 0.985342892754204  91 1.00445688465879  C 91.4093535283939 1.02106604814503  92.8263535502686 2.06763367813369  92.8800856531052 1.98901180781434  C 92.8819524365451 1.98628029354683  92.8784428927981 1.99187354134608  92.8800856531052 1.98901180781434  C 92.9529879430923 1.8620140182511  91.689111866712 1.50576205127572  91 1  C 91 1  92.8800856531052 1  92.8800856531052 1  C 92.9621680986656 1.00137442535583  92.7980236003405 0.998402927612517  92.8800856531052 1  C 103.248942668121 1.20179625869065  114.760497522365 3.49041767973989  124.683788481621 7.05913446790714  C 124.960408498118 7.15861542647934  124.40837319154 6.95719892507651  124.683788481621 7.05913446790714  C 130.985136972843 9.39136293216438  136.965073284693 12.3648927477601  142.344753747324 15.9271956158632  C 154.486844721099 23.9674139524557  163.40535162916 35.1437958642534  170.610278372591 47.1785787031547  C 170.706004339397 47.3384750251364  169.696611401851 47.0181651976924  169.791339067451 47.1785787031547  C 171.004474420796 49.2329314294984  172.135560598764 51.3295230526181  173.179871520343 53.4626567708564  C 176.453533458799 60.1495164602547  178.635379030468 67.5718569683279  179.817987152034 74.7582775408048  C 180.72601396703 80.2761346099785  180.683083511777 87.9998945355586  181 91.4945059039071  C 181.316916488223 94.9891172722556  181.075480059794 94.550697046927  181 96.0538983107531  C 180.95685098968 96.9132199252709  181.067544285008 96.7496447453831  181 97.6023792315206  C 178.7748303782 125.69474668761  163.345362709104 151.300525635726  141.059957173448 166.116490643883  C 126.767993329954 175.618190573204  109.481876699688 181  91 181  C 53.2747813937144 181  20.970819191402 157.916376050023  7.590164498945 125.176992100542  C 6.28852103568693 121.992169975735  4.88544245429341 115.285544022551  3.53658536585363 108.061511992696  C 2.86301357987213 104.454084491266  2.19430463926483 100.693848500475  1.71271933788989 97.6023792315206  C 1.28126160859142 94.8326968779034  1 92.599804892889  1 91.4945059039071  C 1 85.953432883183  -0.242752228368545 112.091062061827  10.8536585365854 132.317743455052  C 16.396525766829 142.421353698571  28.0818526881651 158.193282459815  44.5121951219513 167.246716760844  C 50.2857934076003 170.428080324648  52.95907093347 172.561638386465  60.1219512195123 174.523586199551  C 62.1188435537274 175.070544740198  68.6830835117776 177.702347153504  72.7516059957175 178.404583233528  C 76.8201284796573 179.106819313552  72.7395144888487 177.79270119154  74.8929336188439 178.404583233528  C 81.722201911527 180.345081750516  85.4878048780488 181  85.4878048780488 181  C 85.4878048780488 181  96.8612191022844 180.211555074694  107.655246252677 178.404583233528  C 111.236347018367 177.805089814267  113.080576184395 177.208335818603  116.648822269808 176.338388613458  C 130.008578044998 173.081247172021  140.91599045937 167.494704326039  141.059957173448 167.246716760844  L 157.976445396146 151.422512312619  L 167.826552462527 139.709920889147  L 177.248394004283 119.692037365396  L 179.817987152034 106.488752488028  C 179.817987152034 106.488752488028  181.887937187723 84.0573652770156  179.817987152034 72.8416716715094  C 178.247680228408 64.4653941686631  170.610278372591 48.2612425771737  170.610278372591 48.2612425771737  L 168.881074687377 49.2003068260403  L 91 91.4945059039071  L 91 1.98901180781434  C 93.0931029063354 0.787198141438012  91.8094218415417 2.00856612920637  81.9593147751607 1.98901180781434  C 81.9593147751607 1.98901180781434  85.154357704771 1.98901180781434  91 1.98901180781434  Z " fill-rule="nonzero" fill="#8400ff" stroke="none" transform="matrix(1 0 0 1 456 865 )" />
    <path d="M 91 1.98901180781434  C 91.0581233827238 1.98901180781434  90.528911854331 0.985342892754204  91 1.00445688465879  C 91.4093535283939 1.02106604814503  92.8263535502686 2.06763367813369  92.8800856531052 1.98901180781434  C 92.8819524365451 1.98628029354683  92.8784428927981 1.99187354134608  92.8800856531052 1.98901180781434  C 92.9529879430923 1.8620140182511  91.689111866712 1.50576205127572  91 1  C 91 1  92.8800856531052 1  92.8800856531052 1  C 92.9621680986656 1.00137442535583  92.7980236003405 0.998402927612517  92.8800856531052 1  C 103.248942668121 1.20179625869065  114.760497522365 3.49041767973989  124.683788481621 7.05913446790714  C 124.960408498118 7.15861542647934  124.40837319154 6.95719892507651  124.683788481621 7.05913446790714  C 130.985136972843 9.39136293216438  136.965073284693 12.3648927477601  142.344753747324 15.9271956158632  C 154.486844721099 23.9674139524557  163.40535162916 35.1437958642534  170.610278372591 47.1785787031547  C 170.706004339397 47.3384750251364  169.696611401851 47.0181651976924  169.791339067451 47.1785787031547  C 171.004474420796 49.2329314294984  172.135560598764 51.3295230526181  173.179871520343 53.4626567708564  C 176.453533458799 60.1495164602547  178.635379030468 67.5718569683279  179.817987152034 74.7582775408048  C 180.72601396703 80.2761346099785  180.683083511777 87.9998945355586  181 91.4945059039071  C 181.316916488223 94.9891172722556  181.075480059794 94.550697046927  181 96.0538983107531  C 180.95685098968 96.9132199252709  181.067544285008 96.7496447453831  181 97.6023792315206  C 178.7748303782 125.69474668761  163.345362709104 151.300525635726  141.059957173448 166.116490643883  C 126.767993329954 175.618190573204  109.481876699688 181  91 181  C 53.2747813937144 181  20.970819191402 157.916376050023  7.590164498945 125.176992100542  C 6.28852103568693 121.992169975735  4.88544245429341 115.285544022551  3.53658536585363 108.061511992696  C 2.86301357987213 104.454084491266  2.19430463926483 100.693848500475  1.71271933788989 97.6023792315206  C 1.28126160859142 94.8326968779034  1 92.599804892889  1 91.4945059039071  C 1 85.953432883183  -0.242752228368545 112.091062061827  10.8536585365854 132.317743455052  C 16.396525766829 142.421353698571  28.0818526881651 158.193282459815  44.5121951219513 167.246716760844  C 50.2857934076003 170.428080324648  52.95907093347 172.561638386465  60.1219512195123 174.523586199551  C 62.1188435537274 175.070544740198  68.6830835117776 177.702347153504  72.7516059957175 178.404583233528  C 76.8201284796573 179.106819313552  72.7395144888487 177.79270119154  74.8929336188439 178.404583233528  C 81.722201911527 180.345081750516  85.4878048780488 181  85.4878048780488 181  C 85.4878048780488 181  96.8612191022844 180.211555074694  107.655246252677 178.404583233528  C 111.236347018367 177.805089814267  113.080576184395 177.208335818603  116.648822269808 176.338388613458  C 130.008578044998 173.081247172021  140.91599045937 167.494704326039  141.059957173448 167.246716760844  L 157.976445396146 151.422512312619  L 167.826552462527 139.709920889147  L 177.248394004283 119.692037365396  L 179.817987152034 106.488752488028  C 179.817987152034 106.488752488028  181.887937187723 84.0573652770156  179.817987152034 72.8416716715094  C 178.247680228408 64.4653941686631  170.610278372591 48.2612425771737  170.610278372591 48.2612425771737  L 168.881074687377 49.2003068260403  L 91 91.4945059039071  L 91 1.98901180781434  C 93.0931029063354 0.787198141438012  91.8094218415417 2.00856612920637  81.9593147751607 1.98901180781434  C 81.9593147751607 1.98901180781434  85.154357704771 1.98901180781434  91 1.98901180781434  Z " stroke-width="2" stroke="#797979" fill="none" transform="matrix(1 0 0 1 456 865 )" mask="url(#clip400)" />
  </g>
</svg>