<?xml version="1.0" encoding="utf-8"?>
<svg version="1.1" xmlns:xlink="http://www.w3.org/1999/xlink" width="60px" height="30px" xmlns="http://www.w3.org/2000/svg">
  <defs>
    <mask fill="white" id="clip45">
      <path d="M 0 25  L 0 5  C 0 2.20000000000005  2.20000000000005 0  5 0  L 29.6666666666667 0  L 55 0  C 57.8 0  60 2.20000000000005  60 5  L 60 25  C 60 27.8  57.8 30  55 30  L 5 30  C 2.20000000000005 30  0 27.8  0 25  Z " fill-rule="evenodd" />
    </mask>
  </defs>
  <g transform="matrix(1 0 0 1 -996 -746 )">
    <path d="M 0 25  L 0 5  C 0 2.20000000000005  2.20000000000005 0  5 0  L 29.6666666666667 0  L 55 0  C 57.8 0  60 2.20000000000005  60 5  L 60 25  C 60 27.8  57.8 30  55 30  L 5 30  C 2.20000000000005 30  0 27.8  0 25  Z " fill-rule="nonzero" fill="#ffffff" stroke="none" transform="matrix(1 0 0 1 996 746 )" />
    <path d="M 0 25  L 0 5  C 0 2.20000000000005  2.20000000000005 0  5 0  L 29.6666666666667 0  L 55 0  C 57.8 0  60 2.20000000000005  60 5  L 60 25  C 60 27.8  57.8 30  55 30  L 5 30  C 2.20000000000005 30  0 27.8  0 25  Z " stroke-width="2" stroke="#797979" fill="none" transform="matrix(1 0 0 1 996 746 )" mask="url(#clip45)" />
  </g>
</svg>