<?xml version="1.0" encoding="utf-8"?>
<svg version="1.1" xmlns:xlink="http://www.w3.org/1999/xlink" width="30px" height="20px" xmlns="http://www.w3.org/2000/svg">
  <defs>
    <mask fill="white" id="clip68">
      <path d="M 0 15  L 0 5  C 0 2.20000000000005  2.20000000000005 0  5 0  L 18 0  L 25 0  C 27.8 0  30 2.20000000000005  30 5  L 30 15  C 30 17.8  27.8 20  25 20  L 5 20  C 2.20000000000005 20  0 17.8  0 15  Z " fill-rule="evenodd" />
    </mask>
  </defs>
  <g transform="matrix(1 0 0 1 -307 -1027 )">
    <path d="M 0 15  L 0 5  C 0 2.20000000000005  2.20000000000005 0  5 0  L 18 0  L 25 0  C 27.8 0  30 2.20000000000005  30 5  L 30 15  C 30 17.8  27.8 20  25 20  L 5 20  C 2.20000000000005 20  0 17.8  0 15  Z " fill-rule="nonzero" fill="#ffff00" stroke="none" transform="matrix(1 0 0 1 307 1027 )" />
    <path d="M 0 15  L 0 5  C 0 2.20000000000005  2.20000000000005 0  5 0  L 18 0  L 25 0  C 27.8 0  30 2.20000000000005  30 5  L 30 15  C 30 17.8  27.8 20  25 20  L 5 20  C 2.20000000000005 20  0 17.8  0 15  Z " stroke-width="2" stroke="#797979" fill="none" transform="matrix(1 0 0 1 307 1027 )" mask="url(#clip68)" />
  </g>
</svg>