<?xml version="1.0" encoding="utf-8"?>
<svg version="1.1" xmlns:xlink="http://www.w3.org/1999/xlink" width="30px" height="19px" xmlns="http://www.w3.org/2000/svg">
  <defs>
    <mask fill="white" id="clip70">
      <path d="M 0 14.25  L 0 4.75  C 0 2.09000000000004  2.20000000000005 0  5 0  L 18 0  L 25 0  C 27.8 0  30 2.09000000000004  30 4.75  L 30 14.25  C 30 16.91  27.8 19  25 19  L 5 19  C 2.20000000000005 19  0 16.91  0 14.25  Z " fill-rule="evenodd" />
    </mask>
  </defs>
  <g transform="matrix(1 0 0 1 -832 -998 )">
    <path d="M 0 14.25  L 0 4.75  C 0 2.09000000000004  2.20000000000005 0  5 0  L 18 0  L 25 0  C 27.8 0  30 2.09000000000004  30 4.75  L 30 14.25  C 30 16.91  27.8 19  25 19  L 5 19  C 2.20000000000005 19  0 16.91  0 14.25  Z " fill-rule="nonzero" fill="#ffff00" stroke="none" transform="matrix(1 0 0 1 832 998 )" />
    <path d="M 0 14.25  L 0 4.75  C 0 2.09000000000004  2.20000000000005 0  5 0  L 18 0  L 25 0  C 27.8 0  30 2.09000000000004  30 4.75  L 30 14.25  C 30 16.91  27.8 19  25 19  L 5 19  C 2.20000000000005 19  0 16.91  0 14.25  Z " stroke-width="2" stroke="#797979" fill="none" transform="matrix(1 0 0 1 832 998 )" mask="url(#clip70)" />
  </g>
</svg>