<?xml version="1.0" encoding="utf-8"?>
<svg version="1.1" xmlns:xlink="http://www.w3.org/1999/xlink" width="150px" height="143px" xmlns="http://www.w3.org/2000/svg">
  <g transform="matrix(1 0 0 1 -1229 -895 )">
    <path d="M 1305.46498580174 895.513700200232  C 1345.98472821134 896.268387570507  1378.5 927.792893366752  1378.5 966.5  C 1378.5 1005.72510388215  1345.13169640348 1037.5  1304 1037.5  C 1262.86830359652 1037.5  1229.5 1005.72510388215  1229.5 966.5  C 1229.5 954.197609504589  1232.85733989947 942.110965028415  1239.22845442828 931.420005065073  L 1303.7589036759 966.938032604389  A 0.5 0.5 0 0 0 1304.49995381183 966.506796031214 L 1305.46498554848 895.513700195515  Z " fill-rule="nonzero" fill="#f59a23" stroke="none" />
    <path d="M 1305.46498580174 895.513700200232  C 1345.98472821134 896.268387570507  1378.5 927.792893366752  1378.5 966.5  C 1378.5 1005.72510388215  1345.13169640348 1037.5  1304 1037.5  C 1262.86830359652 1037.5  1229.5 1005.72510388215  1229.5 966.5  C 1229.5 954.197609504589  1232.85733989947 942.110965028415  1239.22845442828 931.420005065073  L 1303.7589036759 966.938032604389  A 0.5 0.5 0 0 0 1304.49995381183 966.506796031214 L 1305.46498554848 895.513700195515  Z " stroke-width="1" stroke="#797979" fill="none" />
  </g>
</svg>