<?xml version="1.0" encoding="utf-8"?>
<svg version="1.1" xmlns:xlink="http://www.w3.org/1999/xlink" width="150px" height="143px" xmlns="http://www.w3.org/2000/svg">
  <defs>
    <mask fill="white" id="clip15">
      <path d="M 75.414364640884 0  C 116.606873606164 0  150 32.0116403870983  150 71.5  C 150 110.988359612902  116.606873606164 143  75.414364640884 143  C 53.0145494709446 143  32.9210173314296 133.534134936384  19.2491713978092 118.54755223103  C 18.9334587210338 118.201479420921  18.6211703994804 117.852462695822  18.3123571096922 117.500550635768  C 7.40161312456616 105.067075395239  0.828729281767956 89.0193718692517  0.828729281767956 71.5  C 0.828729281767956 69.758104075619  -0.0348856883470261 86.8006904101788  8.420958830868 102.585842293907  C 11.3202930034362 107.99824435164  16.8946912444483 116.006899362233  22.505249363375 121.250209643606  C 31.6173736328649 129.765885598585  41.715685544519 134.740775681342  41.715685544519 134.740775681342  L 75.414364640884 71.5  L 38.121546961326 9.57918362941263  C 49.4599963142672 3.30374791108009  62.3218510686567 0  75.414364640884 0  Z " fill-rule="evenodd" />
    </mask>
  </defs>
  <g transform="matrix(1 0 0 1 -1228 -895 )">
    <path d="M 75.414364640884 0  C 116.606873606164 0  150 32.0116403870983  150 71.5  C 150 110.988359612902  116.606873606164 143  75.414364640884 143  C 53.0145494709446 143  32.9210173314296 133.534134936384  19.2491713978092 118.54755223103  C 18.9334587210338 118.201479420921  18.6211703994804 117.852462695822  18.3123571096922 117.500550635768  C 7.40161312456616 105.067075395239  0.828729281767956 89.0193718692517  0.828729281767956 71.5  C 0.828729281767956 69.758104075619  -0.0348856883470261 86.8006904101788  8.420958830868 102.585842293907  C 11.3202930034362 107.99824435164  16.8946912444483 116.006899362233  22.505249363375 121.250209643606  C 31.6173736328649 129.765885598585  41.715685544519 134.740775681342  41.715685544519 134.740775681342  L 75.414364640884 71.5  L 38.121546961326 9.57918362941263  C 49.4599963142672 3.30374791108009  62.3218510686567 0  75.414364640884 0  Z " fill-rule="nonzero" fill="#d9001b" stroke="none" transform="matrix(1 0 0 1 1228 895 )" />
    <path d="M 75.414364640884 0  C 116.606873606164 0  150 32.0116403870983  150 71.5  C 150 110.988359612902  116.606873606164 143  75.414364640884 143  C 53.0145494709446 143  32.9210173314296 133.534134936384  19.2491713978092 118.54755223103  C 18.9334587210338 118.201479420921  18.6211703994804 117.852462695822  18.3123571096922 117.500550635768  C 7.40161312456616 105.067075395239  0.828729281767956 89.0193718692517  0.828729281767956 71.5  C 0.828729281767956 69.758104075619  -0.0348856883470261 86.8006904101788  8.420958830868 102.585842293907  C 11.3202930034362 107.99824435164  16.8946912444483 116.006899362233  22.505249363375 121.250209643606  C 31.6173736328649 129.765885598585  41.715685544519 134.740775681342  41.715685544519 134.740775681342  L 75.414364640884 71.5  L 38.121546961326 9.57918362941263  C 49.4599963142672 3.30374791108009  62.3218510686567 0  75.414364640884 0  Z " stroke-width="2" stroke="#797979" fill="none" transform="matrix(1 0 0 1 1228 895 )" mask="url(#clip15)" />
  </g>
</svg>