<?xml version="1.0" encoding="utf-8"?>
<svg version="1.1" xmlns:xlink="http://www.w3.org/1999/xlink" width="150px" height="143px" xmlns="http://www.w3.org/2000/svg">
  <defs>
    <mask fill="white" id="clip58">
      <path d="M 75 0  C 116.42135623731 0  150 32.0116403870983  150 71.5  C 150 110.988359612902  116.42135623731 143  75 143  C 33.5786437626905 143  0 110.988359612902  0 71.5  C 0 58.9491285633349  3.08679660823363 110.490080574492  9.66942148760343 99.6207070707071  L 75 71.5  L 37.5 9.57918362941263  C 48.9014407382354 3.30374791108009  61.8347502412604 0  75 0  Z " fill-rule="evenodd" />
    </mask>
  </defs>
  <g transform="matrix(1 0 0 1 -1229 -895 )">
    <path d="M 75 0  C 116.42135623731 0  150 32.0116403870983  150 71.5  C 150 110.988359612902  116.42135623731 143  75 143  C 33.5786437626905 143  0 110.988359612902  0 71.5  C 0 58.9491285633349  3.08679660823363 110.490080574492  9.66942148760343 99.6207070707071  L 75 71.5  L 37.5 9.57918362941263  C 48.9014407382354 3.30374791108009  61.8347502412604 0  75 0  Z " fill-rule="nonzero" fill="#02a7f0" stroke="none" transform="matrix(1 0 0 1 1229 895 )" />
    <path d="M 75 0  C 116.42135623731 0  150 32.0116403870983  150 71.5  C 150 110.988359612902  116.42135623731 143  75 143  C 33.5786437626905 143  0 110.988359612902  0 71.5  C 0 58.9491285633349  3.08679660823363 110.490080574492  9.66942148760343 99.6207070707071  L 75 71.5  L 37.5 9.57918362941263  C 48.9014407382354 3.30374791108009  61.8347502412604 0  75 0  Z " stroke-width="2" stroke="#797979" fill="none" transform="matrix(1 0 0 1 1229 895 )" mask="url(#clip58)" />
  </g>
</svg>