<?xml version="1.0" encoding="utf-8"?>
<svg version="1.1" xmlns:xlink="http://www.w3.org/1999/xlink" width="150px" height="143px" xmlns="http://www.w3.org/2000/svg">
  <defs>
    <mask fill="white" id="clip60">
      <path d="M 75.414364640884 143  C 116.606873606164 143  150 110.988359612902  150 71.5  C 150 32.0116403870983  116.606873606164 0  75.414364640884 0  C 34.2218556756038 0  0.828729281767956 32.0116403870983  0.828729281767956 71.5  C 0.828729281767956 75.1777731439829  1.1246519033549 78.8365598706445  1.70778151181921 82.4451786503904  C 2.96520089773775 90.226548596588  5.55806255023484 97.7746498557419  9.39897999959796 104.776843832695  C 9.56517036645534 105.079817588621  2.90048166731307 94.07676868522  0.828729281767956 80.6055555555556  C -0.115793564154183 74.463958397502  1.01090406043312 66.9142236813972  1.70778151181921 60.4898148148148  C 2.58132137832175 52.4367815985593  6.10838690509138 43.4926213315496  9.39897999959796 37.5731481481482  C 11.1704557440266 34.3864268298249  15.5026447465726 27.0002337720655  20.951976200595 21.7861111111111  C 28.2490822152331 14.8039691453794  36.8153451946103 10.2053525566623  36.8890777730556 10.3277777777778  C 37.3807216490424 11.1441009214534  75.414364640884 71.5  75.414364640884 71.5  L 106.605563100422 130.481392414799  L 107.574407414008 132.313440860215  C 113.539118612103 135.614700189151  100.705050782585 138.400030237024  89.1061569083905 140.298661499161  C 78.656460938921 142.00917973156  69.2093063003735 143  75.414364640884 143  Z " fill-rule="evenodd" />
    </mask>
  </defs>
  <g transform="matrix(1 0 0 1 -1229 -895 )">
    <path d="M 75.414364640884 143  C 116.606873606164 143  150 110.988359612902  150 71.5  C 150 32.0116403870983  116.606873606164 0  75.414364640884 0  C 34.2218556756038 0  0.828729281767956 32.0116403870983  0.828729281767956 71.5  C 0.828729281767956 75.1777731439829  1.1246519033549 78.8365598706445  1.70778151181921 82.4451786503904  C 2.96520089773775 90.226548596588  5.55806255023484 97.7746498557419  9.39897999959796 104.776843832695  C 9.56517036645534 105.079817588621  2.90048166731307 94.07676868522  0.828729281767956 80.6055555555556  C -0.115793564154183 74.463958397502  1.01090406043312 66.9142236813972  1.70778151181921 60.4898148148148  C 2.58132137832175 52.4367815985593  6.10838690509138 43.4926213315496  9.39897999959796 37.5731481481482  C 11.1704557440266 34.3864268298249  15.5026447465726 27.0002337720655  20.951976200595 21.7861111111111  C 28.2490822152331 14.8039691453794  36.8153451946103 10.2053525566623  36.8890777730556 10.3277777777778  C 37.3807216490424 11.1441009214534  75.414364640884 71.5  75.414364640884 71.5  L 106.605563100422 130.481392414799  L 107.574407414008 132.313440860215  C 113.539118612103 135.614700189151  100.705050782585 138.400030237024  89.1061569083905 140.298661499161  C 78.656460938921 142.00917973156  69.2093063003735 143  75.414364640884 143  Z " fill-rule="nonzero" fill="#0000bf" stroke="none" transform="matrix(1 0 0 1 1229 895 )" />
    <path d="M 75.414364640884 143  C 116.606873606164 143  150 110.988359612902  150 71.5  C 150 32.0116403870983  116.606873606164 0  75.414364640884 0  C 34.2218556756038 0  0.828729281767956 32.0116403870983  0.828729281767956 71.5  C 0.828729281767956 75.1777731439829  1.1246519033549 78.8365598706445  1.70778151181921 82.4451786503904  C 2.96520089773775 90.226548596588  5.55806255023484 97.7746498557419  9.39897999959796 104.776843832695  C 9.56517036645534 105.079817588621  2.90048166731307 94.07676868522  0.828729281767956 80.6055555555556  C -0.115793564154183 74.463958397502  1.01090406043312 66.9142236813972  1.70778151181921 60.4898148148148  C 2.58132137832175 52.4367815985593  6.10838690509138 43.4926213315496  9.39897999959796 37.5731481481482  C 11.1704557440266 34.3864268298249  15.5026447465726 27.0002337720655  20.951976200595 21.7861111111111  C 28.2490822152331 14.8039691453794  36.8153451946103 10.2053525566623  36.8890777730556 10.3277777777778  C 37.3807216490424 11.1441009214534  75.414364640884 71.5  75.414364640884 71.5  L 106.605563100422 130.481392414799  L 107.574407414008 132.313440860215  C 113.539118612103 135.614700189151  100.705050782585 138.400030237024  89.1061569083905 140.298661499161  C 78.656460938921 142.00917973156  69.2093063003735 143  75.414364640884 143  Z " stroke-width="2" stroke="#797979" fill="none" transform="matrix(1 0 0 1 1229 895 )" mask="url(#clip60)" />
  </g>
</svg>