<?xml version="1.0" encoding="utf-8"?>
<svg version="1.1" xmlns:xlink="http://www.w3.org/1999/xlink" width="150px" height="143px" xmlns="http://www.w3.org/2000/svg">
  <defs>
    <mask fill="white" id="clip411">
      <path d="M 74.585635359116 0  C 115.778144324396 0  149.171270718232 32.0116403870983  149.171270718232 71.5  C 149.171270718232 96.4474270246294  135.843103987217 118.41067822615  115.640396949426 131.203116095727  C 115.579994572856 131.241363131038  115.700922056544 131.165033181554  115.640396949426 131.203116095727  C 103.901585021672 138.589276788696  89.6762855173005 143  74.585635359116 143  C 54.6674867025736 143  36.1436917539303 134.990261596798  22.8777093072673 122.619444444444  C 19.3940885145823 119.370892290263  16.9222531663437 115.917928254566  14.1123034424139 112.115972222222  C 11.7691855305482 108.9456552576  7.77183040329771 101.969450182214  5.60809492974166 97.9473185701846  C 4.80915680333031 96.4621858755609  4.26021131436979 95.379806617202  4.1368427299706 95.0404880219346  C 1.74668963674295 88.4665016702445  0.329573047851087 81.4553562497575  0.0508729025804608 74.1655898704188  C 0.0170561139749446 73.2810675878984  0 72.3924432254557  0 71.5  C 0 70.4905953406481  0.0548789923152087 71.5330387976732  0.293609607863389 73.6889114823458  C 0.313167187946777 73.8655275086698  0.333958672300928 74.049616218972  0.356054972733857 74.2406616512272  C 0.375758681646915 74.4110206485509  0.396499933628186 74.5869113823071  0.418329009666369 74.7679680025545  C 0.528916851286454 75.6852152927836  0.667423876543379 76.7350459108869  0.840387708730479 77.8698913987956  C 0.936947496053737 78.5034353938955  1.04424042908013 79.1634421272592  1.16340841478956 79.8416666666667  C 1.78766889613402 83.3945401578961  2.77515408317594 86.9954029940548  4.1368427299706 91.3  C 7.6524563622591 102.413627150547  14.1123034424139 113.261805555555  14.1123034424139 113.261805555555  C 14.1123034424139 113.261805555555  22.6120909477263 122.810416666667  27.4596260093497 126.820833333333  C 31.6431151721207 130.131018518518  41.2053761155971 135.223611111111  41.2053761155971 135.223611111111  L 58.1385465363364 141.14375  L 78.2591372715681 143  L 87.4229706757329 141.14375  L 89.8157236168928 141.14375  L 89.8157236168928 140.537850110926  L 97.9813004674884 138.470138888889  L 113.918402039949 132.359027777778  L 120.691670208244 127.966666666667  L 128.261793455164 120.51875  C 128.261793455164 120.51875  135.1686060487 114.184236118863  140.413833404165 105.622916666667  C 145.138161301332 97.9118152055587  148.195777980101 88.2971615081653  149.171270718232 81.5604166666667  C 150.20009316586 74.6344006248982  149.918508512546 63.3594059852866  147.386315342116 53.8694444444444  C 145.015352014155 44.983727880697  140.413833404165 37.6368055555556  140.413833404165 37.6368055555556  L 74.585635359116 71.5  L 97.9813004674884 3.45277777777775  C 100.853027370335 1.86337723291885  64.8091063876839 0  74.585635359116 0  Z " fill-rule="evenodd" />
    </mask>
  </defs>
  <g transform="matrix(1 0 0 1 -1229 -895 )">
    <path d="M 74.585635359116 0  C 115.778144324396 0  149.171270718232 32.0116403870983  149.171270718232 71.5  C 149.171270718232 96.4474270246294  135.843103987217 118.41067822615  115.640396949426 131.203116095727  C 115.579994572856 131.241363131038  115.700922056544 131.165033181554  115.640396949426 131.203116095727  C 103.901585021672 138.589276788696  89.6762855173005 143  74.585635359116 143  C 54.6674867025736 143  36.1436917539303 134.990261596798  22.8777093072673 122.619444444444  C 19.3940885145823 119.370892290263  16.9222531663437 115.917928254566  14.1123034424139 112.115972222222  C 11.7691855305482 108.9456552576  7.77183040329771 101.969450182214  5.60809492974166 97.9473185701846  C 4.80915680333031 96.4621858755609  4.26021131436979 95.379806617202  4.1368427299706 95.0404880219346  C 1.74668963674295 88.4665016702445  0.329573047851087 81.4553562497575  0.0508729025804608 74.1655898704188  C 0.0170561139749446 73.2810675878984  0 72.3924432254557  0 71.5  C 0 70.4905953406481  0.0548789923152087 71.5330387976732  0.293609607863389 73.6889114823458  C 0.313167187946777 73.8655275086698  0.333958672300928 74.049616218972  0.356054972733857 74.2406616512272  C 0.375758681646915 74.4110206485509  0.396499933628186 74.5869113823071  0.418329009666369 74.7679680025545  C 0.528916851286454 75.6852152927836  0.667423876543379 76.7350459108869  0.840387708730479 77.8698913987956  C 0.936947496053737 78.5034353938955  1.04424042908013 79.1634421272592  1.16340841478956 79.8416666666667  C 1.78766889613402 83.3945401578961  2.77515408317594 86.9954029940548  4.1368427299706 91.3  C 7.6524563622591 102.413627150547  14.1123034424139 113.261805555555  14.1123034424139 113.261805555555  C 14.1123034424139 113.261805555555  22.6120909477263 122.810416666667  27.4596260093497 126.820833333333  C 31.6431151721207 130.131018518518  41.2053761155971 135.223611111111  41.2053761155971 135.223611111111  L 58.1385465363364 141.14375  L 78.2591372715681 143  L 87.4229706757329 141.14375  L 89.8157236168928 141.14375  L 89.8157236168928 140.537850110926  L 97.9813004674884 138.470138888889  L 113.918402039949 132.359027777778  L 120.691670208244 127.966666666667  L 128.261793455164 120.51875  C 128.261793455164 120.51875  135.1686060487 114.184236118863  140.413833404165 105.622916666667  C 145.138161301332 97.9118152055587  148.195777980101 88.2971615081653  149.171270718232 81.5604166666667  C 150.20009316586 74.6344006248982  149.918508512546 63.3594059852866  147.386315342116 53.8694444444444  C 145.015352014155 44.983727880697  140.413833404165 37.6368055555556  140.413833404165 37.6368055555556  L 74.585635359116 71.5  L 97.9813004674884 3.45277777777775  C 100.853027370335 1.86337723291885  64.8091063876839 0  74.585635359116 0  Z " fill-rule="nonzero" fill="#6d000e" stroke="none" transform="matrix(1 0 0 1 1229 895 )" />
    <path d="M 74.585635359116 0  C 115.778144324396 0  149.171270718232 32.0116403870983  149.171270718232 71.5  C 149.171270718232 96.4474270246294  135.843103987217 118.41067822615  115.640396949426 131.203116095727  C 115.579994572856 131.241363131038  115.700922056544 131.165033181554  115.640396949426 131.203116095727  C 103.901585021672 138.589276788696  89.6762855173005 143  74.585635359116 143  C 54.6674867025736 143  36.1436917539303 134.990261596798  22.8777093072673 122.619444444444  C 19.3940885145823 119.370892290263  16.9222531663437 115.917928254566  14.1123034424139 112.115972222222  C 11.7691855305482 108.9456552576  7.77183040329771 101.969450182214  5.60809492974166 97.9473185701846  C 4.80915680333031 96.4621858755609  4.26021131436979 95.379806617202  4.1368427299706 95.0404880219346  C 1.74668963674295 88.4665016702445  0.329573047851087 81.4553562497575  0.0508729025804608 74.1655898704188  C 0.0170561139749446 73.2810675878984  0 72.3924432254557  0 71.5  C 0 70.4905953406481  0.0548789923152087 71.5330387976732  0.293609607863389 73.6889114823458  C 0.313167187946777 73.8655275086698  0.333958672300928 74.049616218972  0.356054972733857 74.2406616512272  C 0.375758681646915 74.4110206485509  0.396499933628186 74.5869113823071  0.418329009666369 74.7679680025545  C 0.528916851286454 75.6852152927836  0.667423876543379 76.7350459108869  0.840387708730479 77.8698913987956  C 0.936947496053737 78.5034353938955  1.04424042908013 79.1634421272592  1.16340841478956 79.8416666666667  C 1.78766889613402 83.3945401578961  2.77515408317594 86.9954029940548  4.1368427299706 91.3  C 7.6524563622591 102.413627150547  14.1123034424139 113.261805555555  14.1123034424139 113.261805555555  C 14.1123034424139 113.261805555555  22.6120909477263 122.810416666667  27.4596260093497 126.820833333333  C 31.6431151721207 130.131018518518  41.2053761155971 135.223611111111  41.2053761155971 135.223611111111  L 58.1385465363364 141.14375  L 78.2591372715681 143  L 87.4229706757329 141.14375  L 89.8157236168928 141.14375  L 89.8157236168928 140.537850110926  L 97.9813004674884 138.470138888889  L 113.918402039949 132.359027777778  L 120.691670208244 127.966666666667  L 128.261793455164 120.51875  C 128.261793455164 120.51875  135.1686060487 114.184236118863  140.413833404165 105.622916666667  C 145.138161301332 97.9118152055587  148.195777980101 88.2971615081653  149.171270718232 81.5604166666667  C 150.20009316586 74.6344006248982  149.918508512546 63.3594059852866  147.386315342116 53.8694444444444  C 145.015352014155 44.983727880697  140.413833404165 37.6368055555556  140.413833404165 37.6368055555556  L 74.585635359116 71.5  L 97.9813004674884 3.45277777777775  C 100.853027370335 1.86337723291885  64.8091063876839 0  74.585635359116 0  Z " stroke-width="2" stroke="#797979" fill="none" transform="matrix(1 0 0 1 1229 895 )" mask="url(#clip411)" />
  </g>
</svg>