<?xml version="1.0" encoding="utf-8"?>
<svg version="1.1" xmlns:xlink="http://www.w3.org/1999/xlink" width="150px" height="143px" xmlns="http://www.w3.org/2000/svg">
  <defs>
    <mask fill="white" id="clip287">
      <path d="M 75 142.209944751381  C 33.5786437626905 142.209944751381  0 110.375164255924  0 71.1049723756906  C 0 31.8347804954568  33.5786437626905 0  75 0  C 116.42135623731 0  150 31.8347804954568  150 71.1049723756906  C 150 74.1639028091538  150 66.9081087185006  150 61.9133539954184  C 150 59.5379942702883  150 57.6740331491713  150 57.6740331491713  C 150 57.6740331491713  141.235411693206 33.8348879043198  140.37037037037 35.255371393493  L 75 71.1049723756906  L 37.0731707317073 10.6561110362485  C 36.1958478537258 11.1363280424382  28.3797545606169 14.8604444108475  21.219512195122 21.8325023581727  C 14.7304298404325 28.1510396216434  9.0012168365098 37.2761300990296  5.36585365853654 46.4976418272469  C -2.88521448164355 67.4274135997081  3.78083440332337 92.6078421837703  8.21138211382125 101.60881282846  C 12.8707817172793 111.074712259636  18.217675339179 116.405658265542  25.2845528455285 123.1908098639  C 47.7261317009004 144.737739820361  81.9589728301446 142.209944751381  75 142.209944751381  Z " fill-rule="evenodd" />
    </mask>
  </defs>
  <g transform="matrix(1 0 0 1 -1229 -895 )">
    <path d="M 75 142.209944751381  C 33.5786437626905 142.209944751381  0 110.375164255924  0 71.1049723756906  C 0 31.8347804954568  33.5786437626905 0  75 0  C 116.42135623731 0  150 31.8347804954568  150 71.1049723756906  C 150 74.1639028091538  150 66.9081087185006  150 61.9133539954184  C 150 59.5379942702883  150 57.6740331491713  150 57.6740331491713  C 150 57.6740331491713  141.235411693206 33.8348879043198  140.37037037037 35.255371393493  L 75 71.1049723756906  L 37.0731707317073 10.6561110362485  C 36.1958478537258 11.1363280424382  28.3797545606169 14.8604444108475  21.219512195122 21.8325023581727  C 14.7304298404325 28.1510396216434  9.0012168365098 37.2761300990296  5.36585365853654 46.4976418272469  C -2.88521448164355 67.4274135997081  3.78083440332337 92.6078421837703  8.21138211382125 101.60881282846  C 12.8707817172793 111.074712259636  18.217675339179 116.405658265542  25.2845528455285 123.1908098639  C 47.7261317009004 144.737739820361  81.9589728301446 142.209944751381  75 142.209944751381  Z " fill-rule="nonzero" fill="#008080" stroke="none" transform="matrix(1 0 0 1 1229 895 )" />
    <path d="M 75 142.209944751381  C 33.5786437626905 142.209944751381  0 110.375164255924  0 71.1049723756906  C 0 31.8347804954568  33.5786437626905 0  75 0  C 116.42135623731 0  150 31.8347804954568  150 71.1049723756906  C 150 74.1639028091538  150 66.9081087185006  150 61.9133539954184  C 150 59.5379942702883  150 57.6740331491713  150 57.6740331491713  C 150 57.6740331491713  141.235411693206 33.8348879043198  140.37037037037 35.255371393493  L 75 71.1049723756906  L 37.0731707317073 10.6561110362485  C 36.1958478537258 11.1363280424382  28.3797545606169 14.8604444108475  21.219512195122 21.8325023581727  C 14.7304298404325 28.1510396216434  9.0012168365098 37.2761300990296  5.36585365853654 46.4976418272469  C -2.88521448164355 67.4274135997081  3.78083440332337 92.6078421837703  8.21138211382125 101.60881282846  C 12.8707817172793 111.074712259636  18.217675339179 116.405658265542  25.2845528455285 123.1908098639  C 47.7261317009004 144.737739820361  81.9589728301446 142.209944751381  75 142.209944751381  Z " stroke-width="2" stroke="#797979" fill="none" transform="matrix(1 0 0 1 1229 895 )" mask="url(#clip287)" />
  </g>
</svg>