<?xml version="1.0" encoding="utf-8"?>
<svg version="1.1" xmlns:xlink="http://www.w3.org/1999/xlink" width="150px" height="143px" xmlns="http://www.w3.org/2000/svg">
  <defs>
    <mask fill="white" id="clip102">
      <path d="M 75 1.57142921832845  C 75.0479038868603 1.57142921832845  74.6117405392838 0.778475324109675  75 0.793576433735953  C 75.3373792816433 0.806698590523422  76.505236442529 1.63354483963048  76.5495211426691 1.57142921832845  C 76.5510597004493 1.56927117114473  76.5481672193391 1.57369014592536  76.5495211426691 1.57142921832845  C 76.6096054476035 1.47109394812104  75.5679493406967 1.18963521178137  75 0.790055248618785  C 75 0.790055248618785  76.5495211426691 0.790055248618785  76.5495211426691 0.790055248618785  C 76.6171715098893 0.791141120584996  76.4818875826982 0.78879347319663  76.5495211426691 0.790055248618785  C 85.095282418781 0.949485441948966  94.5828276283231 2.7576228077503  102.761364133204 5.57710623707581  C 102.989347663284 5.6557016905334  102.534373509511 5.49657152644166  102.761364133204 5.57710623707581  C 107.954783219376 7.41969557624037  112.883302157714 9.76894841397622  117.317104736805 12.5833644920908  C 127.324322572334 18.9355811889567  134.674740353703 27.7655403789406  140.612866790597 37.2736837268018  C 140.691761818185 37.4000106552183  139.859844561965 37.1469481948619  139.937916813834 37.2736837268018  C 140.937753643513 38.8967358807639  141.869967526454 40.5531590968198  142.730663340942 42.2384525869197  C 145.428736367142 47.5214411813062  147.226960739397 53.3855002567452  148.201637762666 59.0631695488126  C 148.950011511288 63.4225814874416  148.914629267948 69.5247785557176  149.175824175824 72.2857146091642  C 149.4370190837 75.0466506626108  149.238033016313 74.7002744624893  149.175824175824 75.8878865107055  C 149.140261804681 76.5667980625069  149.231492542589 76.4375646330927  149.175824175824 77.1112719895439  C 147.341893168846 99.3057943443546  134.625298936075 119.535774397287  116.258206461633 131.241205315333  C 104.479115381831 138.748073215294  90.2323159612815 143  75 143  C 43.9077868629514 143  17.283642190716 124.762661741178  6.25563008154808 98.8967396153453  C 5.18284700743428 96.3805541797244  4.02646356123083 91.0819491448885  2.91476815867057 85.3745647235114  C 2.35962657681769 82.5244976919945  1.80849283455892 79.553703511425  1.41158187188728 77.1112719895439  C 1.05598484224568 74.9230699090618  0.824175824175824 73.1589618767024  0.824175824175824 72.2857146091642  C 0.824175824175824 67.9079607861612  -0.200070517886163 88.5581319052005  8.94532296971323 104.538327702058  C 13.5136201374964 112.520738004948  23.1443840836526 124.981433103611  36.6858751005093 132.134146391164  C 41.4443352260442 134.647599372512  43.6475859341786 136.333228117483  49.5510586974003 137.883275284728  C 51.1968490827424 138.315402750543  56.6069369602562 140.394672060503  59.9601148316353 140.949477361296  C 63.3132927030143 141.504282662088  59.9501493039962 140.466056742487  61.724945290256 140.949477361296  C 67.3534631138959 142.482578399579  70.4569820423479 143  70.4569820423479 143  C 70.4569820423479 143  79.8306750843003 142.377084948515  88.7268513071512 140.949477361296  C 91.678307982171 140.475844438896  93.1982770750509 140.004375812487  96.1391392333579 139.317069457042  C 107.149926960163 136.74374776574  116.139552576404 132.330070268639  116.258206461633 132.134146391164  L 130.200367084735 119.632150611627  L 138.31858719439 110.378556282586  L 146.083841212321 94.5633223384066  L 148.201637762666 84.131997822033  C 148.201637762666 84.131997822033  149.907640539332 66.4099626221726  148.201637762666 57.5489450222422  C 146.907428759677 50.9312230172311  140.612866790597 38.1290480029604  140.612866790597 38.1290480029604  L 139.187698918168 38.8709606415678  L 75 72.2857146091642  L 75 1.57142921832845  C 76.7250848129138 0.621930023346053  75.6671059133586 1.58687821257741  67.5488858037039 1.57142921832845  C 67.5488858037039 1.57142921832845  70.1821629434926 1.57142921832845  75 1.57142921832845  Z " fill-rule="evenodd" />
    </mask>
  </defs>
  <g transform="matrix(1 0 0 1 -1228 -894 )">
    <path d="M 75 1.57142921832845  C 75.0479038868603 1.57142921832845  74.6117405392838 0.778475324109675  75 0.793576433735953  C 75.3373792816433 0.806698590523422  76.505236442529 1.63354483963048  76.5495211426691 1.57142921832845  C 76.5510597004493 1.56927117114473  76.5481672193391 1.57369014592536  76.5495211426691 1.57142921832845  C 76.6096054476035 1.47109394812104  75.5679493406967 1.18963521178137  75 0.790055248618785  C 75 0.790055248618785  76.5495211426691 0.790055248618785  76.5495211426691 0.790055248618785  C 76.6171715098893 0.791141120584996  76.4818875826982 0.78879347319663  76.5495211426691 0.790055248618785  C 85.095282418781 0.949485441948966  94.5828276283231 2.7576228077503  102.761364133204 5.57710623707581  C 102.989347663284 5.6557016905334  102.534373509511 5.49657152644166  102.761364133204 5.57710623707581  C 107.954783219376 7.41969557624037  112.883302157714 9.76894841397622  117.317104736805 12.5833644920908  C 127.324322572334 18.9355811889567  134.674740353703 27.7655403789406  140.612866790597 37.2736837268018  C 140.691761818185 37.4000106552183  139.859844561965 37.1469481948619  139.937916813834 37.2736837268018  C 140.937753643513 38.8967358807639  141.869967526454 40.5531590968198  142.730663340942 42.2384525869197  C 145.428736367142 47.5214411813062  147.226960739397 53.3855002567452  148.201637762666 59.0631695488126  C 148.950011511288 63.4225814874416  148.914629267948 69.5247785557176  149.175824175824 72.2857146091642  C 149.4370190837 75.0466506626108  149.238033016313 74.7002744624893  149.175824175824 75.8878865107055  C 149.140261804681 76.5667980625069  149.231492542589 76.4375646330927  149.175824175824 77.1112719895439  C 147.341893168846 99.3057943443546  134.625298936075 119.535774397287  116.258206461633 131.241205315333  C 104.479115381831 138.748073215294  90.2323159612815 143  75 143  C 43.9077868629514 143  17.283642190716 124.762661741178  6.25563008154808 98.8967396153453  C 5.18284700743428 96.3805541797244  4.02646356123083 91.0819491448885  2.91476815867057 85.3745647235114  C 2.35962657681769 82.5244976919945  1.80849283455892 79.553703511425  1.41158187188728 77.1112719895439  C 1.05598484224568 74.9230699090618  0.824175824175824 73.1589618767024  0.824175824175824 72.2857146091642  C 0.824175824175824 67.9079607861612  -0.200070517886163 88.5581319052005  8.94532296971323 104.538327702058  C 13.5136201374964 112.520738004948  23.1443840836526 124.981433103611  36.6858751005093 132.134146391164  C 41.4443352260442 134.647599372512  43.6475859341786 136.333228117483  49.5510586974003 137.883275284728  C 51.1968490827424 138.315402750543  56.6069369602562 140.394672060503  59.9601148316353 140.949477361296  C 63.3132927030143 141.504282662088  59.9501493039962 140.466056742487  61.724945290256 140.949477361296  C 67.3534631138959 142.482578399579  70.4569820423479 143  70.4569820423479 143  C 70.4569820423479 143  79.8306750843003 142.377084948515  88.7268513071512 140.949477361296  C 91.678307982171 140.475844438896  93.1982770750509 140.004375812487  96.1391392333579 139.317069457042  C 107.149926960163 136.74374776574  116.139552576404 132.330070268639  116.258206461633 132.134146391164  L 130.200367084735 119.632150611627  L 138.31858719439 110.378556282586  L 146.083841212321 94.5633223384066  L 148.201637762666 84.131997822033  C 148.201637762666 84.131997822033  149.907640539332 66.4099626221726  148.201637762666 57.5489450222422  C 146.907428759677 50.9312230172311  140.612866790597 38.1290480029604  140.612866790597 38.1290480029604  L 139.187698918168 38.8709606415678  L 75 72.2857146091642  L 75 1.57142921832845  C 76.7250848129138 0.621930023346053  75.6671059133586 1.58687821257741  67.5488858037039 1.57142921832845  C 67.5488858037039 1.57142921832845  70.1821629434926 1.57142921832845  75 1.57142921832845  Z " fill-rule="nonzero" fill="#8400ff" stroke="none" transform="matrix(1 0 0 1 1228 894 )" />
    <path d="M 75 1.57142921832845  C 75.0479038868603 1.57142921832845  74.6117405392838 0.778475324109675  75 0.793576433735953  C 75.3373792816433 0.806698590523422  76.505236442529 1.63354483963048  76.5495211426691 1.57142921832845  C 76.5510597004493 1.56927117114473  76.5481672193391 1.57369014592536  76.5495211426691 1.57142921832845  C 76.6096054476035 1.47109394812104  75.5679493406967 1.18963521178137  75 0.790055248618785  C 75 0.790055248618785  76.5495211426691 0.790055248618785  76.5495211426691 0.790055248618785  C 76.6171715098893 0.791141120584996  76.4818875826982 0.78879347319663  76.5495211426691 0.790055248618785  C 85.095282418781 0.949485441948966  94.5828276283231 2.7576228077503  102.761364133204 5.57710623707581  C 102.989347663284 5.6557016905334  102.534373509511 5.49657152644166  102.761364133204 5.57710623707581  C 107.954783219376 7.41969557624037  112.883302157714 9.76894841397622  117.317104736805 12.5833644920908  C 127.324322572334 18.9355811889567  134.674740353703 27.7655403789406  140.612866790597 37.2736837268018  C 140.691761818185 37.4000106552183  139.859844561965 37.1469481948619  139.937916813834 37.2736837268018  C 140.937753643513 38.8967358807639  141.869967526454 40.5531590968198  142.730663340942 42.2384525869197  C 145.428736367142 47.5214411813062  147.226960739397 53.3855002567452  148.201637762666 59.0631695488126  C 148.950011511288 63.4225814874416  148.914629267948 69.5247785557176  149.175824175824 72.2857146091642  C 149.4370190837 75.0466506626108  149.238033016313 74.7002744624893  149.175824175824 75.8878865107055  C 149.140261804681 76.5667980625069  149.231492542589 76.4375646330927  149.175824175824 77.1112719895439  C 147.341893168846 99.3057943443546  134.625298936075 119.535774397287  116.258206461633 131.241205315333  C 104.479115381831 138.748073215294  90.2323159612815 143  75 143  C 43.9077868629514 143  17.283642190716 124.762661741178  6.25563008154808 98.8967396153453  C 5.18284700743428 96.3805541797244  4.02646356123083 91.0819491448885  2.91476815867057 85.3745647235114  C 2.35962657681769 82.5244976919945  1.80849283455892 79.553703511425  1.41158187188728 77.1112719895439  C 1.05598484224568 74.9230699090618  0.824175824175824 73.1589618767024  0.824175824175824 72.2857146091642  C 0.824175824175824 67.9079607861612  -0.200070517886163 88.5581319052005  8.94532296971323 104.538327702058  C 13.5136201374964 112.520738004948  23.1443840836526 124.981433103611  36.6858751005093 132.134146391164  C 41.4443352260442 134.647599372512  43.6475859341786 136.333228117483  49.5510586974003 137.883275284728  C 51.1968490827424 138.315402750543  56.6069369602562 140.394672060503  59.9601148316353 140.949477361296  C 63.3132927030143 141.504282662088  59.9501493039962 140.466056742487  61.724945290256 140.949477361296  C 67.3534631138959 142.482578399579  70.4569820423479 143  70.4569820423479 143  C 70.4569820423479 143  79.8306750843003 142.377084948515  88.7268513071512 140.949477361296  C 91.678307982171 140.475844438896  93.1982770750509 140.004375812487  96.1391392333579 139.317069457042  C 107.149926960163 136.74374776574  116.139552576404 132.330070268639  116.258206461633 132.134146391164  L 130.200367084735 119.632150611627  L 138.31858719439 110.378556282586  L 146.083841212321 94.5633223384066  L 148.201637762666 84.131997822033  C 148.201637762666 84.131997822033  149.907640539332 66.4099626221726  148.201637762666 57.5489450222422  C 146.907428759677 50.9312230172311  140.612866790597 38.1290480029604  140.612866790597 38.1290480029604  L 139.187698918168 38.8709606415678  L 75 72.2857146091642  L 75 1.57142921832845  C 76.7250848129138 0.621930023346053  75.6671059133586 1.58687821257741  67.5488858037039 1.57142921832845  C 67.5488858037039 1.57142921832845  70.1821629434926 1.57142921832845  75 1.57142921832845  Z " stroke-width="2" stroke="#797979" fill="none" transform="matrix(1 0 0 1 1228 894 )" mask="url(#clip102)" />
  </g>
</svg>