<?xml version="1.0" encoding="utf-8"?>
<svg version="1.1" xmlns:xlink="http://www.w3.org/1999/xlink" width="150px" height="143px" xmlns="http://www.w3.org/2000/svg">
  <defs>
    <mask fill="white" id="clip20">
      <path d="M 75 0.790055248618785  C 75.3591500541919 0.790055248618785  75.7177039407154 0.792502073390963  76.075644508449 0.79737928186411  C 79.7473392869855 0.847408874759976  83.3544987305396 1.15317109622854  86.8786105780138 1.69692008596285  C 95.8098994027864 3.07496354362909  103.700591947432 5.76231359254625  111.263736263736 9.90860957642723  C 133.609630250563 22.1591612807072  149.175824175824 45.4509164542198  149.175824175824 71.8950276243094  C 149.175824175824 111.165219504543  115.966176498438 143  75 143  C 34.7492500765348 143  1.95622729395063 113.739263258362  0.824175824175824 75.4173572744015  C 0.804054467250733 74.7362144386366  0.824175824175824 72.5808358025872  0.824175824175824 71.8950276243094  C 0.824175824175824 71.0632162622912  0.938856669060547 78.0555326713367  2.57554945054945 85.6222375690608  C 3.46346375977147 89.7272141586423  7.2273363647022 101.51154150468  12.3626373626375 109.653084714549  C 13.6623804207476 111.713706725525  19.7766167544344 119.388388291997  25.9271978021978 124.795810313076  C 33.4173244914686 131.380924091059  41.037087912088 135.659069981584  41.037087912088 135.659069981584  C 41.037087912088 135.659069981584  50.549094024969 138.644700110197  59.581043956044 140.596915285451  C 61.5588042639517 141.024399241361  72.715142610545 142.802373092801  84.478021978022 141.584484346225  C 97.3902899035629 140.247591795684  111.385761678924 135.506585819865  123.111263736264 126.277163904236  C 133.698380069869 117.94379250275  142.35297431313 105.017565732653  146.291208791209 93.687384898711  C 148.150810639577 88.3373669303987  151.351108417035 73.2689218292813  149.175824175824 60.2746316758748  C 147.214653322012 48.559370455274  139.938186813187 38.5481123388583  139.938186813187 38.5481123388583  L 75 71.8950276243094  C 75 71.8950276243094  118.303571428571 14.1880755064457  118.303571428571 14.1880755064457  C 118.303571428571 14.1880755064457  113.175724881302 10.9899924116539  108.001373626374 8.42725598526705  C 102.873738929684 5.88765718901334  97.6991758241759 3.98319521178634  97.6991758241759 3.98319521178634  C 97.6991758241759 3.98319521178634  92.1876399784447 2.4283589233803  86.8786105780138 1.69692008596285  C 80.8802343172841 0.870508132360827  75 0.852685300453241  75 0.790055248618785  C 77.0471508077559 -0.342936641546491  70.7164829304882 0.790055248618785  75 0.790055248618785  Z " fill-rule="evenodd" />
    </mask>
  </defs>
  <g transform="matrix(1 0 0 1 -1228 -894 )">
    <path d="M 75 0.790055248618785  C 75.3591500541919 0.790055248618785  75.7177039407154 0.792502073390963  76.075644508449 0.79737928186411  C 79.7473392869855 0.847408874759976  83.3544987305396 1.15317109622854  86.8786105780138 1.69692008596285  C 95.8098994027864 3.07496354362909  103.700591947432 5.76231359254625  111.263736263736 9.90860957642723  C 133.609630250563 22.1591612807072  149.175824175824 45.4509164542198  149.175824175824 71.8950276243094  C 149.175824175824 111.165219504543  115.966176498438 143  75 143  C 34.7492500765348 143  1.95622729395063 113.739263258362  0.824175824175824 75.4173572744015  C 0.804054467250733 74.7362144386366  0.824175824175824 72.5808358025872  0.824175824175824 71.8950276243094  C 0.824175824175824 71.0632162622912  0.938856669060547 78.0555326713367  2.57554945054945 85.6222375690608  C 3.46346375977147 89.7272141586423  7.2273363647022 101.51154150468  12.3626373626375 109.653084714549  C 13.6623804207476 111.713706725525  19.7766167544344 119.388388291997  25.9271978021978 124.795810313076  C 33.4173244914686 131.380924091059  41.037087912088 135.659069981584  41.037087912088 135.659069981584  C 41.037087912088 135.659069981584  50.549094024969 138.644700110197  59.581043956044 140.596915285451  C 61.5588042639517 141.024399241361  72.715142610545 142.802373092801  84.478021978022 141.584484346225  C 97.3902899035629 140.247591795684  111.385761678924 135.506585819865  123.111263736264 126.277163904236  C 133.698380069869 117.94379250275  142.35297431313 105.017565732653  146.291208791209 93.687384898711  C 148.150810639577 88.3373669303987  151.351108417035 73.2689218292813  149.175824175824 60.2746316758748  C 147.214653322012 48.559370455274  139.938186813187 38.5481123388583  139.938186813187 38.5481123388583  L 75 71.8950276243094  C 75 71.8950276243094  118.303571428571 14.1880755064457  118.303571428571 14.1880755064457  C 118.303571428571 14.1880755064457  113.175724881302 10.9899924116539  108.001373626374 8.42725598526705  C 102.873738929684 5.88765718901334  97.6991758241759 3.98319521178634  97.6991758241759 3.98319521178634  C 97.6991758241759 3.98319521178634  92.1876399784447 2.4283589233803  86.8786105780138 1.69692008596285  C 80.8802343172841 0.870508132360827  75 0.852685300453241  75 0.790055248618785  C 77.0471508077559 -0.342936641546491  70.7164829304882 0.790055248618785  75 0.790055248618785  Z " fill-rule="nonzero" fill="#ffff00" stroke="none" transform="matrix(1 0 0 1 1228 894 )" />
    <path d="M 75 0.790055248618785  C 75.3591500541919 0.790055248618785  75.7177039407154 0.792502073390963  76.075644508449 0.79737928186411  C 79.7473392869855 0.847408874759976  83.3544987305396 1.15317109622854  86.8786105780138 1.69692008596285  C 95.8098994027864 3.07496354362909  103.700591947432 5.76231359254625  111.263736263736 9.90860957642723  C 133.609630250563 22.1591612807072  149.175824175824 45.4509164542198  149.175824175824 71.8950276243094  C 149.175824175824 111.165219504543  115.966176498438 143  75 143  C 34.7492500765348 143  1.95622729395063 113.739263258362  0.824175824175824 75.4173572744015  C 0.804054467250733 74.7362144386366  0.824175824175824 72.5808358025872  0.824175824175824 71.8950276243094  C 0.824175824175824 71.0632162622912  0.938856669060547 78.0555326713367  2.57554945054945 85.6222375690608  C 3.46346375977147 89.7272141586423  7.2273363647022 101.51154150468  12.3626373626375 109.653084714549  C 13.6623804207476 111.713706725525  19.7766167544344 119.388388291997  25.9271978021978 124.795810313076  C 33.4173244914686 131.380924091059  41.037087912088 135.659069981584  41.037087912088 135.659069981584  C 41.037087912088 135.659069981584  50.549094024969 138.644700110197  59.581043956044 140.596915285451  C 61.5588042639517 141.024399241361  72.715142610545 142.802373092801  84.478021978022 141.584484346225  C 97.3902899035629 140.247591795684  111.385761678924 135.506585819865  123.111263736264 126.277163904236  C 133.698380069869 117.94379250275  142.35297431313 105.017565732653  146.291208791209 93.687384898711  C 148.150810639577 88.3373669303987  151.351108417035 73.2689218292813  149.175824175824 60.2746316758748  C 147.214653322012 48.559370455274  139.938186813187 38.5481123388583  139.938186813187 38.5481123388583  L 75 71.8950276243094  C 75 71.8950276243094  118.303571428571 14.1880755064457  118.303571428571 14.1880755064457  C 118.303571428571 14.1880755064457  113.175724881302 10.9899924116539  108.001373626374 8.42725598526705  C 102.873738929684 5.88765718901334  97.6991758241759 3.98319521178634  97.6991758241759 3.98319521178634  C 97.6991758241759 3.98319521178634  92.1876399784447 2.4283589233803  86.8786105780138 1.69692008596285  C 80.8802343172841 0.870508132360827  75 0.852685300453241  75 0.790055248618785  C 77.0471508077559 -0.342936641546491  70.7164829304882 0.790055248618785  75 0.790055248618785  Z " stroke-width="2" stroke="#797979" fill="none" transform="matrix(1 0 0 1 1228 894 )" mask="url(#clip20)" />
  </g>
</svg>