<?xml version="1.0" encoding="utf-8"?>
<svg version="1.1" xmlns:xlink="http://www.w3.org/1999/xlink" width="615px" height="381px" xmlns="http://www.w3.org/2000/svg">
  <defs>
    <mask fill="white" id="clip413">
      <path d="M 0 381  L 0 0.505188516084468  L 0 79  L 85.4826254826255 79  L 615 78.5677966101695  L 615 381  L 0 381  Z " fill-rule="evenodd" />
    </mask>
  </defs>
  <g transform="matrix(1 0 0 1 -809 -346 )">
    <path d="M 0 381  L 0 0.505188516084468  L 0 79  L 85.4826254826255 79  L 615 78.5677966101695  L 615 381  L 0 381  Z " fill-rule="nonzero" fill="#ffffff" stroke="none" transform="matrix(1 0 0 1 809 346 )" />
    <path d="M 0 381  L 0 0.505188516084468  L 0 79  L 85.4826254826255 79  L 615 78.5677966101695  L 615 381  L 0 381  Z " stroke-width="2" stroke="#797979" fill="none" transform="matrix(1 0 0 1 809 346 )" mask="url(#clip413)" />
  </g>
</svg>