<?xml version="1.0" encoding="utf-8"?>
<svg version="1.1" xmlns:xlink="http://www.w3.org/1999/xlink" width="615px" height="354px" xmlns="http://www.w3.org/2000/svg">
  <defs>
    <mask fill="white" id="clip65">
      <path d="M 0 354  L 0 0.469387755102105  L 0 73  L 85.4826254826255 73  L 615 73  L 615 354  L 0 354  Z " fill-rule="evenodd" />
    </mask>
  </defs>
  <g transform="matrix(1 0 0 1 -809 -373 )">
    <path d="M 0 354  L 0 0.469387755102105  L 0 73  L 85.4826254826255 73  L 615 73  L 615 354  L 0 354  Z " fill-rule="nonzero" fill="#ffffff" stroke="none" transform="matrix(1 0 0 1 809 373 )" />
    <path d="M 0 354  L 0 0.469387755102105  L 0 73  L 85.4826254826255 73  L 615 73  L 615 354  L 0 354  Z " stroke-width="2" stroke="#797979" fill="none" transform="matrix(1 0 0 1 809 373 )" mask="url(#clip65)" />
  </g>
</svg>