<?xml version="1.0" encoding="utf-8"?>
<svg version="1.1" xmlns:xlink="http://www.w3.org/1999/xlink" width="180px" height="180px" xmlns="http://www.w3.org/2000/svg">
  <g transform="matrix(1 0 0 1 -1118 -502 )">
    <path d="M 1207.4453904794 502.501718405996  C 1207.63025770115 502.500572807227  1207.81512842872 502.5  1208 502.5  C 1257.42948510986 502.5  1297.5 542.570514890144  1297.5 592  C 1297.5 641.429485109856  1257.42948510986 681.5  1208 681.5  C 1158.57051489014 681.5  1118.5 641.429485109856  1118.5 592  C 1118.5 576.456167067176  1122.54816667732 561.183273677482  1130.24193557405 547.683710841203  L 1207.75 592.433012701892  A 0.5 0.5 0 0 0 1208.49996528818 591.994108428683 L 1207.4453904794 502.501718405996  Z " fill-rule="nonzero" fill="#00ffff" stroke="none" />
    <path d="M 1207.4453904794 502.501718405996  C 1207.63025770115 502.500572807227  1207.81512842872 502.5  1208 502.5  C 1257.42948510986 502.5  1297.5 542.570514890144  1297.5 592  C 1297.5 641.429485109856  1257.42948510986 681.5  1208 681.5  C 1158.57051489014 681.5  1118.5 641.429485109856  1118.5 592  C 1118.5 576.456167067176  1122.54816667732 561.183273677482  1130.24193557405 547.683710841203  L 1207.75 592.433012701892  A 0.5 0.5 0 0 0 1208.49996528818 591.994108428683 L 1207.4453904794 502.501718405996  Z " stroke-width="1" stroke="#797979" fill="none" />
  </g>
</svg>