<?xml version="1.0" encoding="utf-8"?>
<svg version="1.1" xmlns:xlink="http://www.w3.org/1999/xlink" width="90px" height="25px" xmlns="http://www.w3.org/2000/svg">
  <defs>
    <mask fill="white" id="clip414">
      <path d="M 0 20  L 0 5  C 0 2.19999999999982  2.20000000000005 0  5 0  L 85 0  C 87.8 0  90 2.19999999999982  90 5  L 90 20  C 90 22.8000000000002  87.8 25  85 25  L 69.7619047619047 25  L 5 25  C 2.20000000000005 25  0 22.8000000000002  0 20  Z " fill-rule="evenodd" />
    </mask>
  </defs>
  <g transform="matrix(1 0 0 1 -1186 -688 )">
    <path d="M 0 20  L 0 5  C 0 2.19999999999982  2.20000000000005 0  5 0  L 85 0  C 87.8 0  90 2.19999999999982  90 5  L 90 20  C 90 22.8000000000002  87.8 25  85 25  L 69.7619047619047 25  L 5 25  C 2.20000000000005 25  0 22.8000000000002  0 20  Z " fill-rule="nonzero" fill="#f59a23" stroke="none" transform="matrix(1 0 0 1 1186 688 )" />
    <path d="M 0 20  L 0 5  C 0 2.19999999999982  2.20000000000005 0  5 0  L 85 0  C 87.8 0  90 2.19999999999982  90 5  L 90 20  C 90 22.8000000000002  87.8 25  85 25  L 69.7619047619047 25  L 5 25  C 2.20000000000005 25  0 22.8000000000002  0 20  Z " stroke-width="2" stroke="#797979" fill="none" transform="matrix(1 0 0 1 1186 688 )" mask="url(#clip414)" />
  </g>
</svg>