<?xml version="1.0" encoding="utf-8"?>
<svg version="1.1" xmlns:xlink="http://www.w3.org/1999/xlink" width="504px" height="361px" xmlns="http://www.w3.org/2000/svg">
  <defs>
    <mask fill="white" id="clip2">
      <path d="M 0 361  L 0 0  L 504 0  L 504 361  L 242.741935483871 361  L 235.215053763441 361  L 229.569892473118 361  L 0 361  Z " fill-rule="evenodd" />
    </mask>
  </defs>
  <g transform="matrix(1 0 0 1 -275 -366 )">
    <path d="M 0 361  L 0 0  L 504 0  L 504 361  L 242.741935483871 361  L 235.215053763441 361  L 229.569892473118 361  L 0 361  Z " fill-rule="nonzero" fill="#ffffff" stroke="none" transform="matrix(1 0 0 1 275 366 )" />
    <path d="M 0 361  L 0 0  L 504 0  L 504 361  L 242.741935483871 361  L 235.215053763441 361  L 229.569892473118 361  L 0 361  Z " stroke-width="2" stroke="#797979" fill="none" transform="matrix(1 0 0 1 275 366 )" mask="url(#clip2)" />
  </g>
</svg>