<?xml version="1.0" encoding="utf-8"?>
<svg version="1.1" xmlns:xlink="http://www.w3.org/1999/xlink" width="300px" height="35px" xmlns="http://www.w3.org/2000/svg">
  <defs>
    <mask fill="white" id="clip120">
      <path d="M 0 30  L 0 5  C 0 2.20000000000005  2.20000000000005 0  5 0  L 85.4615384615385 0  L 114.307692307692 0  L 185.333333333333 0  L 295 0  C 297.8 0  300 2.20000000000005  300 5  L 300 30  C 300 32.8  297.8 35  295 35  L 5 35  C 2.20000000000005 35  0 32.8  0 30  Z " fill-rule="evenodd" />
    </mask>
  </defs>
  <g transform="matrix(1 0 0 1 -653 -273 )">
    <path d="M 0 30  L 0 5  C 0 2.20000000000005  2.20000000000005 0  5 0  L 85.4615384615385 0  L 114.307692307692 0  L 185.333333333333 0  L 295 0  C 297.8 0  300 2.20000000000005  300 5  L 300 30  C 300 32.8  297.8 35  295 35  L 5 35  C 2.20000000000005 35  0 32.8  0 30  Z " fill-rule="nonzero" fill="#ffffff" stroke="none" transform="matrix(1 0 0 1 653 273 )" />
    <path d="M 0 30  L 0 5  C 0 2.20000000000005  2.20000000000005 0  5 0  L 85.4615384615385 0  L 114.307692307692 0  L 185.333333333333 0  L 295 0  C 297.8 0  300 2.20000000000005  300 5  L 300 30  C 300 32.8  297.8 35  295 35  L 5 35  C 2.20000000000005 35  0 32.8  0 30  Z " stroke-width="2" stroke="#797979" fill="none" transform="matrix(1 0 0 1 653 273 )" mask="url(#clip120)" />
  </g>
</svg>