<?xml version="1.0" encoding="utf-8"?>
<svg version="1.1" xmlns:xlink="http://www.w3.org/1999/xlink" width="12px" height="12px" viewBox="641 1629.5  12 12" xmlns="http://www.w3.org/2000/svg">
  <path d="M 647 1629.5  C 650.36 1629.5  653 1632.14  653 1635.5  C 653 1638.86  650.36 1641.5  647 1641.5  C 643.64 1641.5  641 1638.86  641 1635.5  C 641 1632.14  643.64 1629.5  647 1629.5  Z " fill-rule="nonzero" fill="#ffffff" stroke="none" />
  <path d="M 647 1630  C 650.08 1630  652.5 1632.42  652.5 1635.5  C 652.5 1638.58  650.08 1641  647 1641  C 643.92 1641  641.5 1638.58  641.5 1635.5  C 641.5 1632.42  643.92 1630  647 1630  Z " stroke-width="1" stroke="#797979" fill="none" />
  <path d="M 647 1638.5  C 645.32 1638.5  644 1637.18  644 1635.5  C 644 1633.82  645.32 1632.5  647 1632.5  C 648.68 1632.5  650 1633.82  650 1635.5  C 650 1637.18  648.68 1638.5  647 1638.5  " fill-rule="nonzero" fill="#797979" stroke="none" />
</svg>