<?xml version="1.0" encoding="utf-8"?>
<svg version="1.1" xmlns:xlink="http://www.w3.org/1999/xlink" width="12px" height="12px" viewBox="507 2135.5  12 12" xmlns="http://www.w3.org/2000/svg">
  <path d="M 513 2135.5  C 516.36 2135.5  519 2138.14  519 2141.5  C 519 2144.86  516.36 2147.5  513 2147.5  C 509.64 2147.5  507 2144.86  507 2141.5  C 507 2138.14  509.64 2135.5  513 2135.5  Z " fill-rule="nonzero" fill="#ffffff" stroke="none" />
  <path d="M 513 2136  C 516.08 2136  518.5 2138.42  518.5 2141.5  C 518.5 2144.58  516.08 2147  513 2147  C 509.92 2147  507.5 2144.58  507.5 2141.5  C 507.5 2138.42  509.92 2136  513 2136  Z " stroke-width="1" stroke="#797979" fill="none" />
  <path d="M 513 2144.5  C 511.32 2144.5  510 2143.18  510 2141.5  C 510 2139.82  511.32 2138.5  513 2138.5  C 514.68 2138.5  516 2139.82  516 2141.5  C 516 2143.18  514.68 2144.5  513 2144.5  " fill-rule="nonzero" fill="#797979" stroke="none" />
</svg>