<?xml version="1.0" encoding="utf-8"?>
<svg version="1.1" xmlns:xlink="http://www.w3.org/1999/xlink" width="12px" height="12px" viewBox="585 2135.5  12 12" xmlns="http://www.w3.org/2000/svg">
  <path d="M 591 2135.5  C 594.36 2135.5  597 2138.14  597 2141.5  C 597 2144.86  594.36 2147.5  591 2147.5  C 587.64 2147.5  585 2144.86  585 2141.5  C 585 2138.14  587.64 2135.5  591 2135.5  Z " fill-rule="nonzero" fill="#ffffff" stroke="none" />
  <path d="M 591 2136  C 594.08 2136  596.5 2138.42  596.5 2141.5  C 596.5 2144.58  594.08 2147  591 2147  C 587.92 2147  585.5 2144.58  585.5 2141.5  C 585.5 2138.42  587.92 2136  591 2136  Z " stroke-width="1" stroke="#797979" fill="none" />
  <path d="M 591 2144.5  C 589.32 2144.5  588 2143.18  588 2141.5  C 588 2139.82  589.32 2138.5  591 2138.5  C 592.68 2138.5  594 2139.82  594 2141.5  C 594 2143.18  592.68 2144.5  591 2144.5  " fill-rule="nonzero" fill="#797979" stroke="none" />
</svg>