<?xml version="1.0" encoding="utf-8"?>
<svg version="1.1" xmlns:xlink="http://www.w3.org/1999/xlink" width="22px" height="22px" xmlns="http://www.w3.org/2000/svg">
  <g transform="matrix(1 0 0 1 -868 -440 )">
    <path d="M 879 440  C 885.16 440  890 444.84  890 451  C 890 457.16  885.16 462  879 462  C 872.84 462  868 457.16  868 451  C 868 444.84  872.84 440  879 440  Z " fill-rule="nonzero" fill="#00ffff" stroke="none" />
    <path d="M 879 440.5  C 884.88 440.5  889.5 445.12  889.5 451  C 889.5 456.88  884.88 461.5  879 461.5  C 873.12 461.5  868.5 456.88  868.5 451  C 868.5 445.12  873.12 440.5  879 440.5  Z " stroke-width="1" stroke="#797979" fill="none" />
  </g>
</svg>