<?xml version="1.0" encoding="utf-8"?>
<svg version="1.1" xmlns:xlink="http://www.w3.org/1999/xlink" width="50px" height="25px" xmlns="http://www.w3.org/2000/svg">
  <defs>
    <mask fill="white" id="clip42">
      <path d="M 0 20  L 0 5  C 0 2.19999999999999  2.20000000000005 0  5 0  L 35 0  L 45 0  C 47.8 0  50 2.19999999999999  50 5  L 50 20  C 50 22.8  47.8 25  45 25  L 5 25  C 2.20000000000005 25  0 22.8  0 20  Z " fill-rule="evenodd" />
    </mask>
  </defs>
  <g transform="matrix(1 0 0 1 -1697 -266 )">
    <path d="M 0 20  L 0 5  C 0 2.19999999999999  2.20000000000005 0  5 0  L 35 0  L 45 0  C 47.8 0  50 2.19999999999999  50 5  L 50 20  C 50 22.8  47.8 25  45 25  L 5 25  C 2.20000000000005 25  0 22.8  0 20  Z " fill-rule="nonzero" fill="#ffffff" stroke="none" transform="matrix(1 0 0 1 1697 266 )" />
    <path d="M 0 20  L 0 5  C 0 2.19999999999999  2.20000000000005 0  5 0  L 35 0  L 45 0  C 47.8 0  50 2.19999999999999  50 5  L 50 20  C 50 22.8  47.8 25  45 25  L 5 25  C 2.20000000000005 25  0 22.8  0 20  Z " stroke-width="2" stroke="#797979" fill="none" transform="matrix(1 0 0 1 1697 266 )" mask="url(#clip42)" />
  </g>
</svg>