<?xml version="1.0" encoding="utf-8"?>
<svg version="1.1" xmlns:xlink="http://www.w3.org/1999/xlink" width="60px" height="22px" xmlns="http://www.w3.org/2000/svg">
  <defs>
    <mask fill="white" id="clip128">
      <path d="M 0 17.6  L 0 4.39999999999992  C 0 1.93600000000004  2.20000000000012 0  5 0  L 22.4516129032259 0  L 42.03663003663 0  L 42.6129032258063 0  L 55 0  C 57.7999999999999 0  60 1.93600000000004  60 4.39999999999992  L 60 17.6  C 60 20.064  57.7999999999999 22  55 22  L 5 22  C 2.20000000000012 22  0 20.064  0 17.6  Z " fill-rule="evenodd" />
    </mask>
  </defs>
  <g transform="matrix(1 0 0 1 -1195 -268 )">
    <path d="M 0 17.6  L 0 4.39999999999992  C 0 1.93600000000004  2.20000000000012 0  5 0  L 22.4516129032259 0  L 42.03663003663 0  L 42.6129032258063 0  L 55 0  C 57.7999999999999 0  60 1.93600000000004  60 4.39999999999992  L 60 17.6  C 60 20.064  57.7999999999999 22  55 22  L 5 22  C 2.20000000000012 22  0 20.064  0 17.6  Z " fill-rule="nonzero" fill="#95f204" stroke="none" transform="matrix(1 0 0 1 1195 268 )" />
    <path d="M 0 17.6  L 0 4.39999999999992  C 0 1.93600000000004  2.20000000000012 0  5 0  L 22.4516129032259 0  L 42.03663003663 0  L 42.6129032258063 0  L 55 0  C 57.7999999999999 0  60 1.93600000000004  60 4.39999999999992  L 60 17.6  C 60 20.064  57.7999999999999 22  55 22  L 5 22  C 2.20000000000012 22  0 20.064  0 17.6  Z " stroke-width="2" stroke="#797979" fill="none" transform="matrix(1 0 0 1 1195 268 )" mask="url(#clip128)" />
  </g>
</svg>